<?xml version="1.0" encoding="utf-8"?>
<!-- Generator: Adobe Illustrator 26.0.1, SVG Export Plug-In . SVG Version: 6.00 Build 0)  -->
<svg version="1.1" id="Layer_1" xmlns="http://www.w3.org/2000/svg" xmlns:xlink="http://www.w3.org/1999/xlink" x="0px" y="0px"
	 viewBox="0 0 512 512" style="enable-background:new 0 0 512 512;" xml:space="preserve">
<style type="text/css">
	.st0{stroke:#000000;stroke-miterlimit:10;}
	.st1{fill:#FFFFFF;}
	.st2{fill:#DCB163;}
</style>
<rect class="st0" width="512" height="512"/>
<g>
	<path class="st1" d="M250.7,261.7c0.9,0.7,2.4,1.3,3.8,1.3c2.1,0,3.6-1.3,3.6-3.3c0-4.6-8-2.7-8-9c0-2.8,2.2-4.7,5.5-4.7
		c1.8,0,3.4,0.6,4.7,1.3l-0.9,1.6c-1-0.7-2.1-1.3-3.8-1.3c-1.6,0-3.3,1-3.3,3.1c0,4,8.1,3.1,8.1,8.7c0,2.7-1.9,5.2-5.8,5.2
		c-1.9,0-3.4-0.4-4.9-1.5L250.7,261.7z"/>
	<path class="st1" d="M272.3,254.4c-0.7-1-1.8-1.5-2.8-1.5c-1.9,0-3.8,1.9-3.8,5.5c0,3,1.9,4.7,3.8,4.7c1.2,0,2.4-0.9,3-1.6l1,1.2
		c-1.2,1.5-2.7,2.2-4.3,2.2c-3.3,0-5.8-2.5-5.8-6.8c0-3.6,2.5-6.8,6.1-6.8c1.6,0,3.3,0.9,4.3,2.2L272.3,254.4z"/>
	<path class="st1" d="M276.8,244.9h2.2l-0.1,8.6l0,0c1-1.5,2.8-2.4,4.3-2.4c3,0,4,1.5,4,3.8c0,1,0,1.9,0,3v6.4h-2.1v-5.8
		c0-1.2,0-2.2,0-3.6s-0.9-2.1-2.4-2.1c-1.3,0-2.5,0.7-3.8,2.4l-0.1,9h-2.1L276.8,244.9z"/>
	<path class="st1" d="M293.3,257.9c0-3.6,2.1-5.3,4-5.3c2.1,0,3.8,1.6,3.8,5.3c0,3.6-2.1,5.3-4,5.3
		C295,263.2,293.3,261.6,293.3,257.9z M291,257.9c0,4.3,2.2,6.8,6.1,6.8c4.1,0,6.4-3.6,6.4-6.8c0-4.3-2.2-6.8-6.1-6.8
		C293.2,251.1,291,254.6,291,257.9z"/>
	<path class="st1" d="M308.6,257.9c0-3.6,2.1-5.3,4-5.3c2.1,0,3.8,1.6,3.8,5.3c0,3.6-2.1,5.3-4,5.3
		C310.2,263.2,308.6,261.6,308.6,257.9z M306.4,257.9c0,4.3,2.2,6.8,6.1,6.8c4.1,0,6.4-3.6,6.4-6.8c0-4.3-2.2-6.8-6.1-6.8
		C308.4,251.1,306.4,254.6,306.4,257.9z"/>
	<path class="st1" d="M322.5,244.9h2.1l-0.1,19.5h-2.2L322.5,244.9z"/>
	<path class="st1" d="M335.1,257.9c0-3.6,2.1-5.3,4-5.3c2.1,0,3.8,1.6,3.8,5.3c0,3.6-2.1,5.3-4,5.3
		C336.8,263.2,335.1,261.6,335.1,257.9z M332.8,257.9c0,4.3,2.2,6.8,6.1,6.8c4.1,0,6.4-3.6,6.4-6.8c0-4.3-2.2-6.8-6.1-6.8
		C335.1,251.1,332.8,254.6,332.8,257.9z"/>
	<path class="st1" d="M347.6,251.5h2.5c0-0.7,0-1.6,0.1-2.5c0.3-3.1,2.5-4.3,5.5-4.3v1.8h-1c-1.8,0-2.5,1.3-2.5,3l-0.1,2.1h3.6v1.6
		h-3.4l-0.1,11.4H350l0.1-11.4h-2.5V251.5L347.6,251.5z"/>
	<path class="st1" d="M364.7,246.5h9.2v1.9h-7.1v6.1h6.8v1.9h-6.8v6.2h7.3v1.9h-9.5L364.7,246.5z"/>
	<path class="st1" d="M378.1,251.5h2.1l-0.1,2.1l0,0c1-1.6,2.8-2.4,4.4-2.4c3,0,4,1.5,4,3.8c0,1,0,1.9,0,3v6.4h-2.1v-5.8
		c0-1.2,0-2.2,0-3.6c0-1.3-0.9-2.1-2.4-2.1c-1.3,0-2.5,0.7-3.8,2.4l-0.1,9H378L378.1,251.5z"/>
	<path class="st1" d="M393.2,266.9c0-1.2,0.6-2.1,2.8-3.3c4.1,0.7,5.3,1.2,5.3,2.7c0,2.1-2.7,3-4.3,3
		C395.4,269.3,393.2,268.9,393.2,266.9z M404.2,251.7l-4.3,0.1c-0.7-0.4-1.6-0.6-2.4-0.6c-2.4,0-4.6,1.8-4.6,4.3
		c0,1.5,0.4,2.5,1.6,3.6c-2.2,1.3-3,1.9-3,2.7c0,0.7,0.9,1.5,3.1,1.6l0,0c-1.3,0.7-3.6,1.8-3.6,3.6c0,3,3.7,3.7,5.9,3.7
		c2.7,0,6.5-1.5,6.5-4.7c0-2.4-2.2-3.1-5.6-3.7c-3.7-0.6-4.1-0.9-4.1-1.3c0-0.3,0.3-0.6,1.5-1.5c0.7,0.3,1.5,0.4,2.2,0.4
		c2.5,0,4.6-1.8,4.6-4.3c0-0.9-0.3-1.6-0.9-2.5l3.1,0.1L404.2,251.7L404.2,251.7z M400,255.5c0,1.6-0.7,3-2.7,3
		c-1.6,0-2.4-1.3-2.4-2.8c0-1.8,1-3.1,2.5-3.1C399.3,252.6,400,253.8,400,255.5z"/>
	<path class="st1" d="M407.3,251.5h2.1l-0.1,12.9h-2.1L407.3,251.5z M407.1,246.5h2.2v2.4h-2.2V246.5z"/>
	<path class="st1" d="M413.9,251.5h2.1l-0.1,2.1l0,0c1-1.6,2.8-2.4,4.4-2.4c3,0,4,1.5,4,3.8c0,1,0,1.9,0,3v6.4h-2.1v-5.8
		c0-1.2,0-2.2,0-3.6c0-1.3-0.9-2.1-2.4-2.1c-1.3,0-2.5,0.7-3.8,2.4l-0.1,9H414v-12.8H413.9z"/>
	<path class="st1" d="M430.7,256.3c0.3-1.8,1.6-3.6,3.6-3.6c2.1,0,2.8,1.8,2.8,3.6H430.7z M439.1,257.6v-0.4c0-3.6-1.5-6.1-5-6.1
		s-5.9,3.3-5.9,6.8c0,4.3,2.1,6.8,5.6,6.8c1.9,0,3.6-1,4.9-2.4l-1-1.2c-1.2,1-2.2,1.9-3.7,1.9c-2.7,0-3.7-2.4-3.7-5.2v-0.4
		L439.1,257.6L439.1,257.6z"/>
	<path class="st1" d="M444.4,256.3c0.3-1.8,1.6-3.6,3.6-3.6c2.1,0,2.8,1.8,2.8,3.6H444.4z M452.9,257.6v-0.4c0-3.6-1.5-6.1-5-6.1
		s-5.9,3.3-5.9,6.8c0,4.3,2.1,6.8,5.6,6.8c1.9,0,3.6-1,4.9-2.4l-1-1.2c-1.2,1-2.2,1.9-3.7,1.9c-2.7,0-3.7-2.4-3.7-5.2v-0.4
		L452.9,257.6L452.9,257.6z"/>
	<path class="st1" d="M456.8,251.5h2.1v2.5l0,0c0.4-1.2,1.8-3,3.6-3c0.4,0,0.9,0.1,1.2,0.1l-0.6,1.9c-0.1,0-0.6-0.1-0.7-0.1
		c-0.9,0-2.2,0.7-3.4,2.8l-0.1,8.4h-2.1V251.5z"/>
	<path class="st1" d="M466,251.5h2.1l-0.1,12.9h-2.1L466,251.5z M466,246.5h2.2v2.4H466V246.5z"/>
	<path class="st1" d="M472.8,251.5h2.1l-0.1,2.1l0,0c1-1.6,2.8-2.4,4.4-2.4c3,0,4,1.5,4,3.8c0,1,0,1.9,0,3v6.4h-2.1v-5.8
		c0-1.2,0-2.2,0-3.6c0-1.3-0.9-2.1-2.4-2.1c-1.3,0-2.5,0.7-3.8,2.4l-0.1,9h-2.1L472.8,251.5z"/>
	<path class="st1" d="M487.9,266.9c0-1.2,0.6-2.1,2.8-3.3c4.1,0.7,5.3,1.2,5.3,2.7c0,2.1-2.7,3-4.3,3
		C490.3,269.3,487.9,268.9,487.9,266.9z M499,251.7l-4.3,0.1c-0.7-0.4-1.6-0.6-2.4-0.6c-2.4,0-4.6,1.8-4.6,4.3
		c0,1.5,0.4,2.5,1.6,3.6c-2.2,1.3-3,1.9-3,2.7c0,0.7,0.9,1.5,3.1,1.6l0,0c-1.3,0.7-3.6,1.8-3.6,3.6c0,3,3.7,3.7,5.9,3.7
		c2.7,0,6.5-1.5,6.5-4.7c0-2.4-2.2-3.1-5.6-3.7c-3.7-0.6-4.1-0.9-4.1-1.3c0-0.3,0.3-0.6,1.5-1.5c0.7,0.3,1.5,0.4,2.2,0.4
		c2.5,0,4.6-1.8,4.6-4.3c0-0.9-0.3-1.6-0.9-2.5l3.1,0.1L499,251.7L499,251.7z M494.7,255.5c0,1.6-0.7,3-2.7,3
		c-1.6,0-2.4-1.3-2.4-2.8c0-1.8,1-3.1,2.5-3.1C494,252.6,494.7,253.8,494.7,255.5z"/>
	<path class="st1" d="M27.6,250.2h-0.7h-0.1l0,0c-0.3,0-0.6,0-0.9,0c-0.4,0-0.9,0-1.2,0l0,0c-0.4,0-0.7,0-1,0h-0.4v0.9h0.4
		c0.9,0,1.2,0.1,1.2,0.4c0,0.1,0,0.6-0.3,1c-0.1,0.3-2.5,6.5-3.1,8c-0.6-1.6-3.3-8.3-3.4-8.6s-0.1-0.6-0.1-0.6
		c0-0.1,0.3-0.4,0.9-0.4h0.6V250h-0.1h-0.9H18h-0.3c-0.6,0-1,0-1.6,0c-0.4,0-1,0-1.5,0s-1,0-1.5,0H13v0.9h0.4c0.7,0,1.2,0.1,1.5,1
		l5.2,12.6H21v-0.1c0.3,0,0.9-1.6,2.2-4.7c1-2.5,3.3-7.8,3.3-8c0.3-0.6,0.6-0.6,0.9-0.6h0.4v-0.9L27.6,250.2L27.6,250.2L27.6,250.2z
		"/>
	<path class="st1" d="M40.6,262.8c-0.1-0.4-0.4-1-0.6-1.6l-0.1-0.4l0,0c0-0.1-0.3-0.7-3.6-10.2l-0.1-0.4c0-0.1-0.1-0.1-0.3-0.1l0,0
		l0,0h-0.3h-0.4l0,0c-0.3,0-0.4,0-0.9,0h-0.1v0.1c-0.1,0.4-0.4,1.2-0.6,1.9l-0.4,0.4l-0.3,0.7l-3.3,9.2c-0.3,0.7-0.9,1.2-1.6,1.2
		h-0.1v0.9H28h0.3c0.6,0,1.3,0,1.9,0c0.7,0,1.5,0,2.1,0h0.3h0.1v-0.9h-0.4c-0.4,0-1.3,0-1.3-0.6c0-0.1,0.1-0.6,0.3-0.9l0.1-0.6
		c0,0,0.4-1.5,0.6-1.9c0.1,0,4.1,0,4.3,0c0,0.1,0.7,2.2,0.7,2.2c0.1,0.6,0.4,1.2,0.4,1.3c0,0.4-0.7,0.4-1,0.4H36v0.9h0.4
		c0.9,0,1.6,0,2.5,0s1.6,0,2.5,0h0.3h0.1v-0.9h-0.3C41.2,263.5,40.8,263.4,40.6,262.8z M35.7,258c-0.3,0-3,0-3.3,0
		c0.3-0.7,1.3-3.8,1.6-5C34.2,253.5,35.6,257.8,35.7,258z"/>
	<path class="st1" d="M59.4,250.2L59.4,250.2c-0.5,0-0.8,0-1.3,0s-0.9,0-1.3,0s-0.9,0-1.5,0h-0.1v0.9h0.6c0.6,0,1.5,0.3,1.5,1.8
		c0,0,0,5.6,0,7.1c-1.5-1.6-8.6-9.6-8.7-9.8l0,0l0,0c-0.3,0-0.6,0-0.9,0h-0.1h-0.7H46h-0.1c-0.3,0-0.7,0-1,0h-0.1v0.9h0.4
		c0.4,0,0.7,0.1,1,0.4c0.3,0.3,0.4,0.7,0.4,1.2v8.4c0,1.5-0.3,2.4-1.5,2.4h-0.4v0.9h0.1c0.4,0,0.9,0,1.3,0l0,0c0.6,0,0.9,0,1.3,0
		s0.7,0,1.3,0l0,0H50l0,0v-0.9h-0.4c-1.3,0-1.6-0.4-1.6-2.2c0,0,0-6.2,0-7.8c0.4,0.6,10.1,11.2,10.1,11.2H59v-0.1
		c-0.1-0.6-0.1-1.3-0.1-2.1v-9.2c0-2.4,0.9-2.4,1.5-2.4h0.4V250h-0.1L59.4,250.2z"/>
	<path class="st1" d="M76.6,252.1L76.6,252.1c-1.5-1.3-3.6-1.9-5.9-1.9h-1.2h-0.1c-0.6,0-1.2,0-1.9,0c-0.7,0-1.5,0-2.2,0h-0.4h-0.6
		H64v0.9h0.4c0.9,0,1.3,0.1,1.3,1v10.5c0,0.9-0.6,1-1.2,1h-0.4v0.9h0.1h0.9h0.3c0.6,0,1.3,0,2.1,0c1.6,0,3.3,0,3.7,0.1
		c1.9,0.1,3.8-0.6,5.3-1.9s2.2-3.3,2.2-5.3C78.8,255.2,78,253.3,76.6,252.1z M75.7,257.6c0,1.5-0.4,3-1.3,3.8
		c-0.9,1-2.2,1.6-3.7,1.6c-1.3,0-1.9-0.1-1.9-1.5c0,0,0-10.1,0-10.4c0.1,0,0.1,0,0.1,0c0.3,0,0.7,0,1,0c1.8,0,3.1,0.4,4,1.2
		C75.1,253.6,75.7,255.2,75.7,257.6z"/>
	<path class="st1" d="M92.8,261c-0.3,1-0.6,1.6-1.2,1.9s-1.3,0.3-2.5,0.3l0,0c-1.5,0-2.2,0-2.2-1.2c0,0,0-4.1,0-4.4
		c0.3,0,2.4,0,2.4,0c1.2,0,1.3,0.4,1.5,1.8v0.1l0.9-0.1v-0.1c0-0.7,0-1.5,0-2.2s0-1.3,0-2.1v-0.1h-0.9v0.1c-0.1,1-0.4,1.3-1.5,1.3
		c0,0-2.1,0-2.2,0c0-0.3,0-4.6,0-4.7c0.3,0,2.7,0,2.7,0c2.1,0,2.1,0.6,2.2,1.9v0.1l0.9-0.3v-0.1c0-0.7,0-1.8,0-2.7v-0.4h-0.1l0,0
		c-0.6,0-1.5,0-2.4,0h-0.1c-0.9,0-1.8,0-2.7,0s-2.1,0-2.8,0c-0.9,0-1.6,0-2.1,0h-0.1v0.9H83c0.9,0,1.3,0.1,1.3,1v10.5
		c0,0.9-0.4,1-1.2,1h-0.4v0.9h0.1h2.1c1,0,2.1,0,3.1,0s2.1,0,3.1,0h0.1h2.1h0.1v-0.1l0.1-1c0.1-0.7,0.1-1.3,0.3-2.1V261l-1-0.1
		C92.8,260.9,92.8,261,92.8,261z"/>
	<path class="st1" d="M123,256.7c1.3-0.4,2.8-1.3,2.8-3.1c0-1-0.3-1.8-1-2.4c-0.7-0.6-2.1-0.9-3.7-0.9c-0.4,0-0.9,0-1.5,0h-0.1
		c-0.6,0-1,0-1.6,0s-1.2,0-1.6,0h-0.1c-0.6,0-1,0-1.3,0h-0.1v0.9h0.4c0.9,0,1.3,0.1,1.3,1v10.5c0,0.9-0.4,1-1.3,1h-0.4v0.9h0.1h1.3
		h0.1c0.6,0,1.3,0,2.1,0s1.3,0,1.9,0h1.6c1.3,0,2.5-0.4,3.4-1.2c0.9-0.7,1.5-1.8,1.5-3c0-1-0.3-1.8-1-2.5
		C124.9,257.3,124.1,256.9,123,256.7z M120.1,256.3c0,0-0.6,0-0.9,0c0-0.3,0-4.6,0-4.9c0.1,0,1,0,1,0c1.2,0,2.5,0.3,2.5,2.5
		C122.7,255.5,121.8,256.3,120.1,256.3z M123.6,260.4c0,1.6-1.2,2.8-2.8,2.8c-1.5,0-1.6-0.1-1.6-1.5c0,0,0-4.1,0-4.4
		c0.1,0,1.2,0,1.2,0c1,0,1.8,0.3,2.4,0.7C123.3,258.6,123.6,259.4,123.6,260.4z"/>
	<path class="st1" d="M136.9,250.2h-1.2h-0.3h-0.1c-0.4,0-1,0-1.5,0c-0.4,0-1,0-1.5,0h-0.1c-0.6,0-1,0-1.3,0h-0.1v0.9h0.4
		c0.9,0,1.3,0.1,1.3,1v10.5c0,0.9-0.4,1-1.3,1h-0.4v0.9h0.1h1.3c0.4,0,1,0,1.6,0c0.4,0,1,0,1.6,0l0,0h1.5h0.1v-0.9h-0.4
		c-0.9,0-1.3-0.1-1.3-1v-10.5c0-0.9,0.4-1,1.3-1h0.4v-0.9L136.9,250.2L136.9,250.2L136.9,250.2z"/>
	<path class="st1" d="M152.2,261c-0.1,0.4-0.3,0.7-0.6,1.2s-1,0.9-1.8,0.9c-0.9,0.1-1.5,0.1-2.4,0c-0.7-0.1-1-0.4-1-0.9V252
		c0-0.9,0.4-0.9,1.2-0.9h0.7v-0.9h-0.1l0,0c-0.4,0-1,0-1.5,0l0,0c-0.4,0-1,0-1.5,0c-0.6,0-1,0-1.6,0c-0.4,0-1,0-1.6,0h-0.1v0.9h0.4
		c0.9,0,1.3,0.1,1.3,1v10.4c0,1-0.6,1.2-1.3,1.2h-0.4v0.9h0.1h2.5l0,0c1,0,1.9,0,2.7,0c0.7,0,1.5,0,2.5,0l0,0c0.7,0,1.6,0,2.5,0h0.1
		v-0.1c0.1-0.7,0.3-1.5,0.4-2.2l0.3-1.3H152.2L152.2,261z"/>
	<path class="st1" d="M109.7,262.5l-2.5-3.6c-0.4-0.6-0.7-0.9-1.2-1.2c1.3-0.6,2.8-1.9,2.8-3.8c0-1.3-0.4-2.4-1.5-3
		c-0.7-0.4-1.9-0.7-3.4-0.7h-1.2h-0.3h-0.1c-0.4,0-1,0-1.6,0c-0.7,0-1.3,0-2.1,0h-0.1h-0.9h-0.1v0.9H98c0.7,0,1.2,0.1,1.2,1.3v10.2
		c0,0.9-0.9,0.9-1.2,0.9h-0.6v0.9h0.1c0.4,0,0.9,0,1.5,0c0.4,0,0.9,0,1.3,0s1,0,1.8,0l0,0h1.6h0.1v-0.9h-0.6c-0.9,0-1.5,0-1.5-1.5
		c0,0,0-3.6,0-3.8c0.1,0,0.9,0,0.9,0c0.3,0,0.4,0.1,0.7,0.4c0.4,0.7,1.6,2.4,3.3,4.7c0.7,1,1.8,1,2.5,1h2.2v-0.9h-0.1
		C110.7,263.5,110.4,263.4,109.7,262.5z M105.9,254.1c0,1-0.3,1.9-0.7,2.4c-0.4,0.4-1.2,0.7-2.1,0.7c0,0-0.6,0-0.9,0
		c0-0.3,0-5.3,0-5.6h0.1c0.1,0,0.4,0,0.9,0C104.8,251.4,105.9,252.4,105.9,254.1z"/>
	<path class="st1" d="M167,250.1h-0.4l0,0h-0.9H156c-0.4,0-0.7,0-1,0l0,0l0,0h-0.7v0.1l0,0c0,0.4,0,0.6-0.1,1.2v0.1v0.1l-0.1,1.5
		v0.1h0.9v-0.1c0.3-1.5,0.3-1.6,1.8-1.6c0,0,2.4,0,2.7,0c0,0.3,0,10.5,0,10.5c0,1.5-0.4,1.5-1.5,1.5h-0.6v0.9h0.1h1.3
		c0.6,0,1.3,0,2.1,0c0.6,0,1.2,0,1.8,0l0,0h1.3h0.1v-0.9h-0.6c-0.9,0-1.5-0.1-1.5-1.5c0,0,0-10.1,0-10.4c0.3,0,2.8,0,2.8,0
		c1.2,0,1.3,1.2,1.3,1.6v0.1l0.9-0.3v0v-1.6c0-0.6,0-1,0.1-1.2v-0.1L167,250.1L167,250.1z"/>
	<path class="st2" d="M212.5,231.7c0,0.1,0,2.7,0,2.8c0.1,0,0.7,0,0.7,0h0.1c1.2,0,3.1,0,3.8,0.7c1.2,1.2,0.3,2.4-1,3.8
		c-0.3,0.4-0.6,0.7-1,1.3c-1.5,1.9-1.5,3.6-0.9,4.1c0.3,0.3,0.9,0.3,1.5,0l0.3-0.1c1-0.7,2.8-2.1,3.8-2.7c0.9-0.4,1.6-0.3,2.2,0.3
		c0.7,0.9,0.7,2.7-0.7,4.6c-0.4,0.6-0.9,1-1.5,1.8c-0.7,0.7-1.5,1.6-2.1,2.5c-0.7,1-0.9,2.2-0.3,2.8c0.4,0.3,1,0.1,1.9-0.4
		c1.2-0.9,2.1-1,2.7-0.3c0.3,0.3,0.4,0.7,0.4,1.2c0,1.2-0.7,2.7-1.9,3.8c-2.2,2.4-4,4.4-4,6.5c0,0.4,0,0.9,0.1,1.3
		c0.3,0.9,0.9,2.7,1,3.1c0,0.1,0.1,0.1,0.1,0.1l-0.1,0.1c0,0,0,0-0.3,0l0,0h-2.1l-2.1-5.6c-0.3-0.7-0.6-1.3-2.5-1.9l-0.9-0.3h-0.1
		c-0.3,0-0.4,0-0.6,0.1c-1.2,0.9-1.3,0.9-1.3,0.9l0,0c-1.2,0.9-1.8,1.2-2.4,1c-0.4-0.1-0.7-0.4-0.7-1l0,0v-0.1l0,0l0,0l0,0l0,0l0,0
		c0.6-0.9,1-1.9,1.3-3c0.3-1,0.4-2.1,0.4-3.1l0,0l0,0l0,0l0,0l0,0v-0.1l0,0c0.3-0.4,0.7-0.6,1.2-0.4c0.6,0.1,0.9,0.7,1.5,2.2l0.4,1
		c0.1,0.3,0.1,0.4,0.1,0.4c0.1,0.3,0.1,0.4,0.6,0.4c0,0,0.7,0.3,1.3,0.4l0,0c0.1,0,0.1,0.1,0.3,0.1l0.1-0.1c0,0-0.1-0.1-0.1-0.3l0,0
		c-0.1-0.4-0.4-1.2-0.4-1.2l-0.7-1.9c-0.7-2.1-1.3-3-2.8-4.1c-0.9-0.6-2.1-1.2-3.3-1.8c-0.7-0.3-1.3-0.6-1.9-0.9c-1.8-1-3-2.5-3-3.8
		c0-0.1,0-0.4,0.1-0.6c0.3-0.9,1-1.3,1.9-1.3s2.7,0.6,4.3,1.3c0.7,0.3,1.2,0.1,1.5-0.1c0.4-0.7-0.3-2.5-2.2-3.8
		c-2.8-2.1-4.1-3.4-4.3-4.6c0-0.4,0-0.9,0.4-1.3c0.6-0.7,2.1-0.7,3.4-0.7c0,0,0.9,0,1,0c0-0.1,0-2.7,0-2.8c-0.1,0-25.7,0-25.9,0
		c0,0.1,0,1.5,0,1.5s0,1.3,0,1.5c0.6,0,1.2,0,1.8,0.1l0,0c2.2,0.1,4,1.2,5.8,5.9c0.4,1.2,15.1,38.3,15.5,39.5c1.2,0,11.1,0,12.4,0
		c0,0,14.5-37.1,15.5-39.7c1.8-4.4,3.7-5.5,5.9-5.8c0.4,0,1,0,1.5,0c0-0.1,0-2.8,0-2.8C238.3,231.7,212.7,231.7,212.5,231.7z
		 M204.1,261.9l-1.5-0.6c-1.8-0.6-2.5-1-2.7-3c0-0.4,0-1,0-1l0,0l0,0l0,0l0,0c0,0,0.3-0.6,0.6-0.9c1.2-1.5,2.1-1.5,3.8-1l1.5,0.3
		v0.1c0,1-0.1,2.1-0.4,3.1C205.1,260.1,204.7,261,204.1,261.9L204.1,261.9z"/>
</g>
</svg>
