<?xml version="1.0" encoding="utf-8"?>
<!-- Generator: Adobe Illustrator 22.1.0, SVG Export Plug-In . SVG Version: 6.00 Build 0)  -->
<svg version="1.1" id="Layer_1" xmlns="http://www.w3.org/2000/svg" xmlns:xlink="http://www.w3.org/1999/xlink" x="0px" y="0px"
	 viewBox="0 0 1082 1058" style="enable-background:new 0 0 1082 1058;" xml:space="preserve">
<style type="text/css">
	.st0{fill:#F1F1F1;}
	.st1{fill:#D9D9D9;}
</style>
<rect x="-23" y="-36" class="st0" width="1142" height="1141"/>
<g>
	<path class="st1" d="M1,910c13-0.9,25.6,1.7,38,5c21.1,5.5,42,6.6,62.9-1c21-7.6,42.8-11.3,64.9-13.4c31.3-2.9,44-21.1,50-49.8
		c3.8-18.1-1.5-34.5-11.1-49.4c-7.9-12.3-16.6-24.2-25.5-35.8c-4-5.2-9.5-9.2-14.4-13.7c-14.1-12.8-26.9-26.4-30.2-46.3
		c-1.7-10.2,0.9-19.6,5.1-28.6c9.3-20.2,20.6-39.2,33.1-57.6c9.3-13.6,22.1-19.7,37.7-21.5c9.6-1.1,19.2-1.9,28.8-3
		c12.2-1.4,22.5-6.7,31.5-15c8.5-7.9,16.7-16.3,25.9-23.4c11.3-8.7,24.7-10.4,38-5.3c11.3,4.3,22,10.3,33,15.5
		c8.7,4.1,17.7,6.7,27.5,6.3c10.2-0.4,18.6-4.8,26-11.4c3.3-3,3.8-6.6,0.4-9.5c-6.5-5.6-12.9-11.6-20.1-16.1
		c-7.9-4.9-16.6-8.6-25.1-12.2c-18.8-7.9-32.2-21.4-42.2-38.9c-10.4-18.1-23.6-33.7-40.5-46.3c-12.4-9.3-14.7-21.5-8-35.4
		c6.6-13.8,17.8-23.7,29.3-32.9c12.6-10.1,25.8-19.5,39-28.8c4.3-3.1,9.2-5.4,14.1-7.6c13.5-5.8,26.3-3.1,36.5,8.8
		c6.5,7.5,11.7,16.1,17.4,24.3c19.1,27.5,38.3,54.9,57.2,82.6c4.8,7.1,9.2,14.7,12.6,22.5c3.7,8.4,2.5,17.2-2.6,24.8
		c-4,6.1-8.4,12-13.4,17.3c-11.5,12-23.3,23.8-35.3,35.3c-4.9,4.7-5.6,9.6-3.5,15.8c2.2,6.4,4.3,12.9,5.5,19.5
		c1.6,9.3-2.5,17.3-7.9,24.5c-4.2,5.6-8.7,10.9-12.9,16.6c-18.9,25.4-14.3,56.7,10.9,76c17,13,36.5,19.4,57.6,20
		c22.6,0.7,41.4-8.3,55.5-25.8c14.6-18.1,26.2-38.2,34.8-59.8c4.7-11.9,4.3-24.5,3.6-37c-0.8-14.6-2.3-29.2-2.6-43.8
		c-0.3-17.6,8.5-29.6,25.5-34.5c17.1-5,34.7-6.5,52.4-3.4c12,2.1,22.2,7.9,31.3,15.7c17.3,14.8,30.7,32.4,33.9,55.5
		c1.3,9.4,0,19.9-3.1,28.9c-9.2,27.4-19.7,54.5-30.2,81.5c-2.3,6-6.6,11.2-9.6,16.9c-2.8,5.3-6,10.5-7.8,16.1
		c-3.3,10.3-7.8,19.7-15.1,27.8c-10.8,12-21,24.5-32,36.3c-11.6,12.6-24,24.5-35.6,37c-2.9,3.1-5.1,7.2-6.4,11.2
		c-7.4,23-24.1,35.6-46.7,40.6c-14.7,3.2-29.9,4.4-44.9,6.1c-12.7,1.5-25.5,2.3-38.2,3.7c-16.2,1.8-29.1,10.6-42.2,19.4
		c-5.7,3.8-12.2,7.2-18.8,8.6c-11.4,2.4-19.4-4.6-26.6-12.6c-9.2-10.1-17.8-21-28.3-29.5c-8.5-6.8-19.2-11.1-29.3-15.6
		c-12.1-5.4-24.1-10.8-33.3-20.7c-12.6-13.6-19.3-29.8-20-48.3c-0.2-5.6,0.1-11.4-0.8-16.9c-2.1-13-11.8-20.9-20.9-28.9
		c-9-7.9-18.5-15.2-27.6-23.1c-20-17.3-17.9-39.5-6.7-59.4c10.5-18.7,27.7-27.7,48.4-30.8c19.9-2.9,39.7-6.2,59.3-11.1
		c17.3-4.3,28.1-0.6,35.8,19.6c1.3,3.4,2.3,7,3.2,10.5c4,15.6,7.7,31.4,11.8,46.9c3.2,12.1,2,23.3-5.1,33.9
		c-3.7,5.5-7.1,11.3-10.2,17.2c-5.5,10.8-3.4,19.5,6,26.9c8.4,6.5,16.9,12.9,25.3,19.5c11,8.7,18.2,19.7,21,33.6
		c3.9,19.6,16.5,30.5,35.5,34.7c23.8,5.2,47.9,8.4,72.4,7c18.3-1,35.6-5.1,49.2-18.9c6-6.1,9.9-13.4,12.4-21.4
		c7.3-23.7,17.7-45.9,29.8-67.5c8.5-15.1,21.4-25.6,33.8-37c18.1-16.5,36.6-32.9,48.3-54.8c11.5-21.6,20-44.5,20.9-69.3
		c0.7-21.7-10.7-37-28.6-47.6c-10.8-6.4-22.6-9.9-35.4-7.2c-7.7,1.6-12.6,6.6-15.4,13.6c-3.5,8.5-3.6,17.5-3,26.6
		c1,13.8,2.3,27.5,2.6,41.3c0.4,20.1-6.4,37.5-20.8,51.8c-11.2,11.1-22,22.7-33.6,33.5c-14.9,13.9-33.6,19.5-53.2,21.9
		c-30.3,3.7-58.7-3.4-84.9-18.6c-26.5-15.4-39.5-39.6-42.6-69.6c-0.7-6.8-1.4-13.6-2.4-20.3c-2.4-15.3-12-26.2-23.7-35.1
		c-6.1-4.7-13.4-8-20.5-11.1c-11.5-5-22.5-2.9-32.7,4c-5.4,3.6-10.6,7.5-15.8,11.5c-14.4,11.2-31.3,14.9-48.8,17.6
		c-13.3,2-26.2,5-37.1,13.5c-15.1,11.8-24.2,27.7-31.1,45.1c-2.3,5.7-4.3,11.6-5.4,17.6c-2.8,14.2,3.4,25.7,12.6,35.8
		c4.9,5.4,10.6,10.1,15.9,15.1c16.4,15.5,27.9,34.4,36.9,54.8c3.5,8,6,16.6,8,25.1c5.3,22.5,17.2,39.6,38.2,50.3
		c10.4,5.3,20.7,10.8,30.4,17.2c10.5,7,15.9,17,14.9,30.2c-0.6,8.2-4.8,14.4-9.8,20.3c-8.1,9.3-16.7,18.1-24.5,27.6
		c-10.8,13.1-14.3,28.5-11.9,45c1.7,11.8,4.7,23.4,7.2,35.2c0.3,1.6,0.7,3.2,0.4,5.1c-0.5-0.7-1.2-1.3-1.4-2
		c-4.2-15.1-8.4-30.1-8.4-46c-0.1-17.9,6.3-32.7,18.3-45.6c7.9-8.5,15.9-17.1,23.1-26.2c8.6-10.8,7.7-26.1-2.3-35.5
		c-6.2-5.9-13.4-10.9-20.7-15.4c-7.8-4.8-16.4-8.2-24.2-13c-16.4-10.2-26.7-25.3-30.3-44.1c-4.5-23.4-15.5-43.6-29-62.4
		c-6.5-9.1-15.1-16.7-23.2-24.7c-8.2-8.1-16.2-16.3-20.3-27.5c-2.9-8-3.2-16-0.9-24.1c5.5-18.9,13.6-36.6,27-51.3
		c10.4-11.3,23.4-17.9,38.6-20.4c10-1.6,20-3.5,29.9-5.8c13.6-3.2,25-11,35.5-19.8c17-14.1,34.6-14.7,53.2-4
		c12.8,7.4,24.1,16.8,29.6,30.7c3.3,8.3,4.6,17.7,5.7,26.7c1.9,16,4.8,31.6,13.6,45.5c11.2,17.7,27.1,29.7,46.4,37.1
		c18.7,7.1,37.9,12,58.1,10.6c24.4-1.7,47-8.6,64.8-26.3c12.1-12.1,23.9-24.6,35.3-37.3c8.8-9.7,13.2-21.8,13.5-34.8
		c0.3-14.2-1.1-28.5-1.4-42.8c-0.2-9.5-0.8-19.1,0.8-28.3c2.5-14.4,11.1-20.5,25.7-20.5c29.4,0,54.6,20.7,58.5,49.8
		c1.2,8.9-0.4,18.6-2.4,27.6c-5.8,25.5-14.2,50.3-32.3,70c-13.9,15.2-28.8,29.6-44.1,43.3c-11.1,10-20.3,21.1-27.2,34.1
		C583.4,795.1,574,815.9,567,838c-7.4,23.4-25.8,34.1-48.9,38.1c-23.7,4.1-47.2,1.6-70.5-2.5c-10.3-1.8-20.6-4.3-30.3-8.1
		c-11.7-4.6-19.1-14.3-21.5-26.5c-3.5-18.4-13.8-31.7-28.5-42.4c-7.5-5.5-14.9-11.2-21.8-17.5c-7.3-6.7-8.7-14.8-4.2-23.7
		c3.6-7.1,7.6-14.1,12-20.8c6.6-10.1,7.2-20.6,4.1-32c-3.9-13.9-6.8-28.1-10.7-42.1c-2.2-7.8-4.6-15.8-8.5-22.8
		c-5.7-10.1-14.6-13.4-26.1-10.9c-10.9,2.4-21.6,5.6-32.6,7.7c-10.6,2-21.4,3-32.1,4.7c-29.2,4.6-49.2,24.7-53,53.9
		c-1.9,14.8,6,25.5,16.4,34.6c11.1,9.8,22.9,18.8,34,28.6c9.4,8.4,13.9,18.8,13.5,31.9c-0.7,22.7,6.4,42.9,23.9,58.1
		c6.8,5.9,15.1,10.2,23.2,14.4c7.3,3.9,15.5,6.2,22.8,10.1c5.7,3,11.4,6.5,15.9,11c10.1,9.9,19.3,20.7,29.2,30.8
		c10.5,10.8,19.8,11.8,32.7,3.9c5.1-3.1,10.1-6.5,15-10c12.5-9.1,26.7-13.3,41.9-14.7c19.2-1.8,38.5-3,57.6-5.2
		c16.2-1.9,32.1-5.8,44.8-16.6c5.5-4.7,11-10.7,13.8-17.3c5-11.7,11-22.1,20.3-30.9c10-9.5,19.6-19.4,29.1-29.3
		c3.5-3.6,6.4-7.7,9.6-11.5c5.5-6.5,10.8-13.1,16.6-19.3c7.7-8.1,13.3-17.2,17.2-27.8c2.9-7.9,7.3-15.2,10.9-22.9
		c6.3-13.4,13.2-26.6,18.6-40.3c6.9-17.5,12.7-35.4,18.9-53.2c9.4-27.1,0-49.7-17.4-70c-5.3-6.1-11.4-11.6-17.8-16.7
		c-11.2-8.9-24.2-13.4-38.6-12.8c-10.6,0.4-21.4,0.6-31.7,2.7c-25.2,5.1-33.1,19.6-31.3,45.9c1.1,15.4,2.5,30.8,3.1,46.3
		c0.7,16.9-6,31.9-14.2,46.2c-8.6,15-16.8,30.3-29,43c-17.1,17.8-38.4,23.2-62.1,20.6c-20-2.1-38.2-9.2-53.4-22.7
		c-16.5-14.7-23.7-36.6-16.1-59c3.9-11.4,11.7-20,18.8-29.3c2.7-3.6,5.3-7.3,7.5-11.2c4.5-8.2,5-16.8,1.3-25.5
		c-1.5-3.7-2.8-7.5-4.3-11.2c-2.2-5.6-0.9-10.5,3.3-14.7c9.1-9,18.6-17.6,27.4-27c7.9-8.5,15.5-17.4,22.3-26.7
		c6.1-8.4,6.1-18.1,0.9-26.9c-6.2-10.6-13.3-20.7-20.2-30.9c-17-25.1-34.1-50.1-51.4-75c-5.4-7.8-10.8-15.7-17.6-22.2
		c-9.6-9.3-21.6-10.1-32.8-3.5c-13.7,8.1-27,17.1-39.7,26.8c-10.7,8.1-20.8,17.2-29.9,27c-5.3,5.6-8.8,13.2-12,20.4
		c-3.5,7.9-0.5,15.2,5.2,21c5.8,5.9,12.4,11.1,18.6,16.7c10.7,9.8,19.4,21.1,26.4,33.7c11.3,20.5,27.9,34.3,49.5,42.9
		c14,5.6,27.4,12.2,37.6,23.9c4.8,5.4,4.5,10.3-0.9,15c-16.2,13.8-33.9,13-52,5.2c-9.3-4-18.1-9.2-27.3-13.5
		c-21.4-10.1-36.3-6.1-53.4,9.5c-7.4,6.7-14.2,14.1-21.8,20.5c-8.8,7.4-19.6,10.3-31,11.3c-11.7,1.1-23.5,2.7-35.1,4.6
		c-8.7,1.4-16,6-21.4,12.9c-16.4,21.2-29.9,44.1-39.9,69c-6,14.8-3.7,29.2,5.3,41.8c6.9,9.7,15.8,18,23.8,26.8
		c6.9,7.6,14.7,14.6,20.7,22.8c8.5,11.7,16.7,23.8,23.3,36.6c12.1,23.5,5.8,58.9-12.2,76.9c-8.6,8.7-19.5,12-31.1,13.2
		c-24.1,2.5-47.7,6.9-70.7,14.8c-19.6,6.7-39.4,5.4-59.1,0.3c-12.8-3.3-25.7-5.9-39-5C1,911.3,1,910.7,1,910z"/>
	<path class="st1" d="M1083,839c-21.6,2.7-40.8,10.6-57,25.4c-11.3,10.3-22.2,21.3-34.5,30.3c-19.9,14.5-38.7,12.8-56.5-4.2
		c-15.2-14.6-31.5-27.5-49.8-38.2c-11.6-6.8-22.2-15.4-32.9-23.6c-3.2-2.5-6.2-5.8-8.1-9.4c-7.9-15.2-20.5-25.4-34.3-34.8
		c-6.3-4.3-12.3-9.3-17.4-14.9c-8.7-9.6-9.8-21.6-8.5-33.9c2.9-26.7,14.1-49.3,33.4-68.1c14-13.6,27.9-14.4,42.3-1.1
		c11.2,10.4,19.8,22.7,24.6,37.6c3.7,11.7,8.3,23.2,13.6,34.3c5.7,12,10.6,24.3,10.6,37.6c0,8-1.1,16.5-4,23.8
		c-4.6,11.6-4.4,22.5,0.4,33.4c1.9,4.3,5.4,9.2,9.4,11.2c14.7,7.2,29.8,14.1,45.2,19.5c9.2,3.2,17.7-1.3,23.8-8.9
		c13.4-16.5,17.6-45.2,0.8-62.5c-6.8-7-15.7-12.2-23.9-17.7c-6.5-4.4-13.6-7.8-20.1-12.1c-15.1-10-23.3-25.4-30.3-41.3
		c-6-13.9-10.3-28.6-16.7-42.2c-7.9-16.7-20.3-29.9-35.8-40.2c-11.3-7.5-23.1-8.8-35.6-3.5c-26.8,11.3-46.4,29.9-57.9,57
		c-6.6,15.6-13,31.4-20.7,46.5c-6.8,13.1-14.9,25.7-23.4,37.8c-6.8,9.7-17.8,14.3-28.2,19.1c-11.7,5.4-23.4,10.6-32.8,19.7
		c-9.5,9.3-8.7,19.2,1.6,27.6c10.8,8.8,23.6,12.4,36.8,12.2c18.9-0.3,37.9-2,56.6-4.7c8.2-1.2,16.1-6,23.7-10
		c15.5-8.1,30.8-16.1,49-14.9c11.1,0.7,20.4,4,24.9,15.7c4.1,10.7,13.1,17.4,21.6,24.4c7.6,6.2,15.3,12.3,22.9,18.5
		c11.6,9.4,17.8,22.7,24.9,35.3c2.3,4,4.8,8,7.9,11.5c9.5,11.1,21.3,14.2,34,7c13.1-7.5,25.4-16.5,37.6-25.4
		c15.1-11,29.5-22.9,44.6-33.8c10-7.2,21.5-11.3,33.5-13.7c1.5-0.3,3-0.2,4.5-0.4c0,0.3,0,0.7,0,1c-8.8,2.9-18,5.2-26.4,8.9
		c-16.1,7.2-29,19.3-42.9,29.9c-14.8,11.3-29.7,22.6-45.1,33c-10.4,6.9-22.6,8.7-33.5,1.4c-6.1-4.1-10.6-10.8-14.9-17.1
		c-5.7-8.4-9.5-18.2-16-25.8c-7.2-8.5-16.4-15.4-24.8-22.9c-6.2-5.5-13-10.4-18.8-16.4c-4.4-4.6-8.4-9.9-11.2-15.7
		c-4-8.1-10.3-11.7-18.7-13.1c-13.8-2.4-26.3,2-38.6,7.5c-4.9,2.2-9.7,4.5-14.1,7.5c-11.9,8-25.3,10.9-39.2,11.8
		c-14.9,1-29.9,2.3-44.8,2c-14-0.3-27.3-4.3-37.6-14.9c-7.9-8.2-8.6-18.3-0.3-26.1c6-5.6,13.1-10.2,20.3-14.4
		c8.8-5.1,18.2-9.1,27.2-13.7c9.1-4.7,15.9-11.7,20.8-20.9c8.2-15.1,17.6-29.5,25.4-44.7c6.5-12.7,10.9-26.5,17.1-39.4
		c11.1-23.1,29.8-38.5,53-48.5c17.4-7.5,32.8-3,46.8,8.7c18.2,15.1,30.1,34.3,37.7,56.6c4.2,12.2,9.5,24.1,15.1,35.8
		c7.3,15.3,19.7,25.7,34.5,33.6c8.5,4.6,17,9.3,24.6,15.1c19.4,14.7,22.2,36.6,15.3,56c-1.6,4.4-3.5,8.7-6,12.6
		c-7.2,11.4-18.1,16.7-30.9,12.8c-15.9-4.9-31.8-10.4-45.3-20.4c-3.4-2.5-6.4-6.5-8-10.4c-4.9-12-5.2-23.9,0-36.3
		c6.2-14.9,3.8-30.1-1.1-45c-0.8-2.5-1.8-5-3.1-7.4c-7.9-14.7-13.8-30.2-18.8-46.2c-4.6-14.3-14.1-25.7-25.9-34.8
		c-12.7-9.8-25.3-7.6-37.5,5.6c-15.9,17.1-27.3,36.6-30.3,60.1c-1,7.8-1,16,0.2,23.7c1.5,10.3,9.1,17.2,16.9,23.3
		c6.8,5.4,14.5,9.6,21,15.3c5.9,5.2,11.9,11,15.8,17.7c6.8,11.6,16.5,19.8,27.5,27c14.9,9.8,29.9,19.4,44.2,30
		c10.4,7.7,19.3,17.4,29.5,25.4c15.8,12.5,30.1,12.9,46.9,1.5c6.3-4.3,12-9.5,17.7-14.6c11.6-10.5,22.2-22.1,36-30
		c12.6-7.2,26.4-10.9,40.7-13C1083,837.7,1083,838.3,1083,839z"/>
	<path class="st1" d="M1083,724c-13.1,0.4-26.3,0.7-39.4,1.1c-12.8,0.5-24.2,5.5-35.6,10.9c-5.7,2.7-11.4,5.6-17.2,8
		c-21.8,8.9-39.5,3.9-53.8-15c-8.2-10.8-12.6-23.4-17.5-35.8c-4.6-11.6-9.2-23.2-14.8-34.4c-7.9-15.8-21.1-26.9-35.6-36.4
		c-8.5-5.5-17.1-10.9-26.3-15.2c-8.9-4.2-18-2.6-27,1.6c-13,6-26.4,11.1-39.5,16.9c-11.7,5.3-20.2,14-27,25
		c-12.2,19.7-22.4,40.1-26.6,63.2c-1.2,6.9-3.4,13.6-4.5,20.5c-3.5,21.2-15.8,35.4-33.7,46.4c-11,6.7-20.6,15.6-30.7,23.8
		c-4.5,3.7-8.4,8.1-12.9,11.8c-12.9,10.6-16.7,24.4-14.6,40.3c0.5,3.9,1.6,7.8,2.7,11.7c3.7,12.7,12.3,20,25.1,23.1
		c26.2,6.3,52.3,4.7,78.2-0.8c12.3-2.6,22.5-9.9,32.8-16.7c6.3-4.1,12.4-8.5,18.9-12.2c18.1-10.5,36.5-9.8,53.4,1.7
		c12.5,8.4,23.5,19,34.8,29c10.3,9.2,15,21.8,18.7,34.8c2.5,8.8,4.5,17.8,7.7,26.4c6.8,18.2,18.3,32.8,35.1,42.8
		c13.5,8.1,27.5,5.2,36.2-8c5.8-8.7,10.9-18,15.6-27.3c8.4-16.6,21.2-29.4,35.5-40.6c10-7.8,20.3-15.2,30.8-22.2
		c9.4-6.3,19.9-10.1,31.1-11.5c0,0.7,0,1.3,0,2c-12.3,1.1-23.3,6-33.1,13c-14,10.1-27.7,20.8-41,31.9c-12.1,10.1-19.4,24-26.7,37.7
		c-3.5,6.6-7.1,13.2-11.5,19.3c-9.1,12.6-21.8,15.8-35.6,8.6c-17.6-9.1-29.5-23.7-37-41.8c-3.2-7.8-5.8-16-7.4-24.3
		c-4.8-24.2-18.6-42-38.2-55.9c-7.4-5.3-14.4-11.5-22.5-15.6c-15.1-7.6-30.6-7.1-45.3,2c-6.9,4.3-13.9,8.6-20.5,13.4
		c-15.1,11-31.9,17.1-50.4,18.7c-17.6,1.5-35.2,2.1-52.8-0.9c-25-4.3-36.6-17.4-37.2-42.9c-0.4-15.2,4.3-27.8,16.7-37.7
		c9.7-7.8,18.1-17.2,27.7-25.1c7.7-6.3,16.3-11.5,24.7-16.9c12.1-7.8,18.6-19.1,21.9-32.7c4.2-17.1,8.1-34.4,13.1-51.3
		c5.2-17.6,15.5-32.8,26-47.6c8.5-12,22-17.4,35.2-22.7c9.3-3.7,18.5-7.5,27.6-11.6c10.7-4.9,21.5-4.4,31.3,0.9
		c25,13.5,48.5,29.1,61.2,56c5.9,12.6,9.9,26.2,15.7,38.9c4.5,9.8,9.5,19.5,15.8,28.2c11.4,15.8,28.4,20.2,46.6,12.8
		c9.6-3.9,18.6-9.2,28.3-12.6c9.8-3.4,20.1-6.2,30.3-7.4c12.2-1.4,24.6-0.9,36.9-1.3C1083,722.7,1083,723.3,1083,724z"/>
	<path class="st1" d="M1,310c32.8-0.2,62.3,9.7,88.4,29.4c8.3,6.3,13.1,14.7,9.1,25.7c-2.8,7.8-5.8,15.6-8.6,23.4
		c-6.1,16.8-8.1,34.1-0.2,50.6c4.3,9.1,11.2,17.3,18.1,24.9c13.2,14.6,24.8,30,33.1,47.9c4.9,10.6,9.4,21.4,14.5,31.8
		c4.6,9.4,12.4,15.2,22.9,16.7c13.7,1.9,27.3,4.3,41.1,5.4c19.6,1.7,34.4-6.8,46-22.6c7.6-10.4,16.8-19.7,25.4-29.4
		c4.8-5.3,9.7-10.7,6.9-18.5c-1.4-3.9-4-7.6-7-10.6c-8.6-8.5-18-16.4-26.6-24.9c-17.4-17.4-19.5-41.5-6-62.1
		c8.1-12.3,19.4-21.4,30.6-30.6c27.5-22.4,54.8-45,82-67.7c4.9-4.1,9.2-9.2,13.1-14.3c1.7-2.2,2.4-5.9,2-8.7
		c-1.3-11.2-7.8-20.1-15-28.2c-12.8-14.2-27.1-27-46.9-29.1c-12.2-1.3-24.8,1-37.2,1.7c-9.9,0.5-19.9,2.3-29.7,1.4
		c-25.3-2.2-42.9-19.9-47.2-44.9c-3.6-20.7,4.9-36.8,18.5-50.9c10.4-10.8,21.7-20.7,32.1-31.4c8.7-8.9,15.6-19.1,17.9-31.7
		c1.9-10.3,1.1-20.6-1.2-30.7c-2.4-10.5-5.5-20.9-8.2-31.4c0.7,0,1.3,0,2,0c3.1,12.8,6.6,25.5,9.2,38.3c4.5,23-3.4,42.3-19.6,58.5
		c-10.4,10.5-21.6,20.3-31.7,31.1c-5.6,6-11,12.9-14,20.4c-8.2,20.1-3.7,38.7,10.2,54.9c13.2,15.4,31,18.4,50.1,16.1
		c11.6-1.3,23.1-3.4,34.7-4.3c18.8-1.5,35,5.3,49.1,17.3c10.3,8.8,19.8,18.4,25.4,31c1.2,2.7,2.4,5.5,3.1,8.4
		c1.4,5.3,1.4,10.5-3.1,14.8c-10.7,10.3-20.6,21.4-31.9,30.9c-25.7,21.4-52.2,41.8-78,63.2c-10.5,8.7-18.3,19.7-21.8,33.3
		c-4,15.6,0.4,29.2,10.9,40.6c9.2,10,19.1,19.5,29.4,28.3c10.5,9,8.6,21.1,1.2,29.4c-11.9,13.3-23.4,26.8-35.1,40.2
		c-7.3,8.3-16.6,12.8-27.6,13.4c-19.6,1.1-38.9-1.5-57.9-5.9c-11.8-2.8-18.2-11.6-22.9-22c-3.3-7.5-6.5-15-9.8-22.4
		c-8.1-18.7-19.4-35.2-33.6-49.9c-3.5-3.6-6.7-7.4-9.9-11.2c-18.5-22.7-17.4-47.4-7.1-73c1.7-4.2,3.5-8.3,4.9-12.6
		c5.1-15.1,2.9-22.8-10.2-31.8c-18.8-13-39.5-21.3-62.1-24.8c-7.2-1.1-14.6-1.5-21.8-2.3C1,310.7,1,310.3,1,310z"/>
	<path class="st1" d="M286,1c3.8,16.4,8,32.6,11.3,49.1c4.4,22.3-2.8,41.1-18.2,57.6c-11.1,11.9-21.5,24.5-31.2,37.5
		c-5.8,7.7-7.7,17.2-6,27.1c2.9,16.7,12.6,26.5,29.4,27.4c13.4,0.8,26.9,0.1,40.3,0.2c12.9,0.1,25.9,1.3,37.6,6.6
		c11,5,21.1,11.8,31.6,17.9c5.9,3.5,11.5,7.4,17.5,10.7c15.6,8.7,31.1,7.1,46.1-1.6c6.8-3.9,13.4-8.1,19.8-12.5
		c18.9-13,39.6-16.1,61.5-11c15.4,3.6,30.5,8.3,46,11.7c24.5,5.5,46-1.5,65.4-16.6c15-11.6,25.4-27.1,36.4-42.2
		c10.5-14.4,20.9-28.9,32.1-42.7c4.6-5.7,11-10.1,17.1-14.4c5.4-3.8,12.1-3.9,18.4-2.7c13.7,2.6,27.4,5.4,41,8.6
		c11.8,2.8,21,9.9,29.4,18.7c14.7,15.5,27.2,32.8,39.9,49.9c3.6,4.9,8.6,8.8,13.3,12.7c16,13.3,28.8,29.5,42.3,45.1
		c11.5,13.1,24.1,24.5,42.3,27.1c10.3,1.5,20.3,0.1,30.1-2.9c29.7-9.3,56.8-23.7,82.4-41.1c9.6-6.6,15.5-16.3,20.9-26.3
		c0,1.7,0,3.3,0,5c-10.2,18.5-27.3,29.1-45.2,38.7c-20,10.8-40,21.3-62.3,26.7c-13.7,3.3-27.4,3.4-40.6-2.2
		c-10.3-4.4-18.5-11.7-25.8-20c-9.9-11.2-19.4-22.8-29.6-33.8c-6-6.4-12.8-12.2-19.6-17.8c-10.3-8.5-16.8-20.1-25-30.3
		c-10.2-12.7-20.7-25.2-32.3-36.6c-11.5-11.3-27.3-13-42.5-15.4c-4.6-0.7-9.4-1.3-13.7-2.9c-13.4-5.1-24.3-0.4-32.9,9.2
		c-11.1,12.3-21.2,25.6-31.4,38.7c-11.5,14.7-21.8,30.4-34.3,44.1c-13,14.3-29.7,23.6-49.3,26.3c-15.7,2.2-30.8-1.4-45.8-5.4
		c-13-3.4-26.1-6.7-39.3-9.1c-16-2.9-30.6,2.1-44.2,10.3c-7,4.2-13.8,8.7-20.7,13.1c-19.7,12.5-39.2,12-58.5-0.8
		c-9.4-6.3-18.8-12.6-28.5-18.6c-12.5-7.7-26.4-11.2-40.9-11.8c-13.4-0.6-26.9,0-40.4-0.2c-4.3,0-8.7-0.4-12.9-1
		c-16.5-2.5-26.7-14.6-27.5-31.3c-0.5-12.5,3.3-23.5,10.9-32.9c9.2-11.4,19.2-22.1,28.9-33.1c11.1-12.5,19.2-26.6,16.9-43.8
		c-2.2-16.1-6.1-32-9.5-47.9c-0.8-3.7-2-7.4-3.1-11.1C284.7,1,285.3,1,286,1z"/>
	<path class="st1" d="M1083,692c-22.5-9.4-44.3-8.3-65.9,3.4c-9.2,5-18.8,9.3-28.6,13.2c-18.1,7.1-32.8,2.8-42.3-12.3
		c-3.5-5.6-6.7-11.6-9.2-17.7c-7.4-18.3-16.5-35.7-28.9-51.2c-14.9-18.7-33.2-33.1-55.2-42.6c-17.7-7.7-35.6-7.4-53.4,0.1
		c-8.8,3.7-17.3,7.9-26.3,11c-19.5,6.7-29.7,21.8-38.1,39.3c-13.3,27.6-23,56.5-32.9,85.3c-5.6,16.2-15.5,29.6-25.2,43.4
		c-10.5,15-24.3,26.3-37.8,38.3c-9.1,8-18.2,16.1-26.3,25.1c-4.1,4.5-6,10.9-8.7,16.6c-0.7,1.5-1,3.2-1.2,4.8
		c-3.9,27.6-22,40.7-47.5,45.5c-21.3,4-42.7,6.8-64.1,10.3c-13,2.1-25.3,6.2-35.3,15.2c-12,10.8-17.6,24.9-19.8,40.4
		c-2.4,17.1-1.5,34.2,1.4,51.2c3.1,18.1,11.9,32.6,25.7,44.4c0.5,0.4,1.2,0.6,1.8,0.9c-0.5,0.5-0.9,1-1.4,1.5c-3-2.6-6.2-5-9-7.9
		c-11.2-11.7-17.1-25.9-19.4-41.9c-2.7-18.4-3.5-36.7,0.3-55.1c5.4-25.8,20.2-43,46.3-48.5c17.9-3.8,36.1-5.9,54.2-8.7
		c14-2.2,27.9-4.8,40.7-11.4c11.2-5.7,18.2-14.8,21.7-26.7c0.4-1.4,0.9-2.9,1.1-4.4c2.2-19.3,14-32.4,28.1-44.3
		c13.1-11,26.5-22,37.8-34.7c16.4-18.5,29.8-38.9,37.9-62.9c8.5-25.4,18.7-50.2,29-75c5-12.1,10.9-24.1,21.8-32.3
		c4.4-3.3,9.2-6,14.2-8.3c9.1-4.2,18.4-7.8,27.6-11.8c25.5-11.2,49.6-7.5,72.9,6.5c31.7,19.2,53,46.9,67.1,80.8
		c3.4,8.1,7.2,16.2,11.8,23.6c8.6,13.7,20.3,17.8,35.7,13.1c6.7-2.1,13.1-4.9,19.4-7.8c7.4-3.3,14.6-7.2,22.1-10.6
		c19.3-8.7,38.6-7.2,57.8,0.3C1083,690.7,1083,691.3,1083,692z"/>
	<path class="st1" d="M1083,311c-15.6-0.3-30.9,1.4-45.7,6.7c-25.8,9.4-41.6,32.1-40.1,58.7c0.5,8.6,1.6,17.2,1.8,25.9
		c0.2,7.1-1.7,13.8-6,19.7c-6.7,9.2-17,10.4-24.4,1.9c-10.7-12.1-22.1-23.6-37.2-29.5c-26-10.3-52.2-20.6-80.7-21.3
		c-10.6-0.3-21.2,0.2-31.8,1.2c-18.7,1.9-31,13.5-40.3,28.8c-8.8,14.4-18.1,28.3-30.2,40.3c-6.1,6.1-8.6,14-9.3,22.6
		c-1.4,16.5,4,30.8,13.8,43.7c6.4,8.5,13,16.9,19,25.7c11.4,16.5,27.5,20.4,46.1,18c2-0.3,4-0.5,5.9-1.2c14.4-5.5,27.8-1.7,40.9,4.6
		c24.4,11.7,44,28.9,59.7,51c9.5,13.4,20.1,26.2,30.4,39c11.1,13.9,24,16.5,40,8.8c17.9-8.7,31.9-22,45.2-36.5
		c10.2-11.1,20.6-22.2,31.4-32.8c3.1-3,7.8-4.3,11.7-6.4c0,0.7,0,1.3,0,2c-5.1,3.3-11.1,5.8-15.2,10.1c-13.7,13.9-26.4,28.7-40,42.5
		c-10,10.1-21.6,18.2-34.8,24c-13.5,5.9-25.9,4.3-35.5-6.8c-13.3-15.3-25.9-31.3-38.1-47.4c-17.9-23.7-40.2-41-68.3-50.8
		c-7.3-2.6-14.5-3-22-0.8c-11.2,3.3-22.5,4.1-34,1.6c-8.7-1.9-15.9-6.3-21.2-13.2c-9-11.8-17.9-23.7-26.3-35.8
		c-9.2-13.3-12.4-28.1-9.7-44.2c1.4-8.4,5.1-15.6,11.1-21.4c9.7-9.3,17.1-20.4,24.2-31.7c6.5-10.3,12.8-20.7,23.3-27.7
		c8-5.3,17.1-7.2,26.4-8.4c26.5-3.3,52.1,0.6,77.2,9.2c11.5,4,23,7.9,34.2,12.5c15.1,6.2,25.7,18.2,36.5,29.7
		c5.2,5.5,11.5,6.1,17.4,0.9c7.9-7,9.6-16.4,9.3-26.4c-0.3-10.6-2-21.3-1.3-31.9c1.4-19.9,11.9-34.6,29-44.6
		c13.1-7.6,27.4-11,42.5-11.6c5.1-0.2,10.3-0.6,15.4-0.9C1083,309.7,1083,310.3,1083,311z"/>
	<path class="st1" d="M1083,336c-15.2-2.7-29.5-0.4-41.5,9.5c-7.9,6.5-12.1,15.9-12.4,26.4c-0.3,10.8-0.2,21.7,0,32.5
		c0.5,25.2-9.5,46.4-25.3,65.1c-9.9,11.8-21.8,21.6-36.7,26.8c-4.3,1.5-9,2.5-13.6,2.6c-7.8,0.2-14-3.4-17.3-10.6
		c-2.7-5.9-4.5-12.1-6.4-18.3c-2.2-7-3.7-14.2-6.1-21.1c-5.4-15.8-17.1-24.7-32.7-29.7c-25.2-8-49.7-5.6-73.4,5.3
		c-4.3,2-8.5,5.7-10.9,9.7c-7.8,12.8-12.5,26.8-11.8,42.2c0.5,10.6,4.8,19.2,15,21.9c26.1,6.9,48.2,22.6,73.1,31.9
		c8.7,3.2,17.4,7,25.1,12c12.6,8,19.4,21.2,26.7,33.7c6.2,10.6,12.3,21.3,21.3,30c17,16.4,37.3,17,53.9,0
		c10.5-10.8,19.7-22.9,29.2-34.7c11.9-14.8,23.6-29.7,39-41.3c1.5-1.1,3.1-2,4.6-2.9c0,0.7,0,1.3,0,2c-16.4,11.6-28.8,27-41.3,42.5
		c-9.6,11.9-19,24-29.3,35.4c-7.3,8.1-17.2,12.7-28.3,13.2c-15.4,0.8-26.4-7.8-34.9-19.1c-8-10.6-14.6-22.2-21.5-33.6
		c-9.1-15.2-21.2-26.2-38.1-32.9c-19.2-7.6-37.4-17.4-56.2-25.9c-5.9-2.7-12.2-4.6-18.4-6.2c-18.5-4.8-23.3-16.4-21.7-34.5
		c1.1-12.3,5.1-23.9,11.7-34.2c2.8-4.4,7.2-8.7,11.9-10.8c26.2-11.7,53-13.5,80.2-3.4c14,5.2,23.8,14.6,28.5,28.8
		c2.8,8.5,5.1,17.2,7.3,26c5.8,23.6,18.9,28.8,39.7,17.6c29.4-15.8,48.1-40.6,53.7-73.6c2.3-13.4,0.2-27.5,0.9-41.3
		c0.3-6.4,1.4-13,3.6-19c5.5-15.5,18.4-21.8,33.5-23.9c6.2-0.9,12.5-0.1,18.8-0.1C1083,334.7,1083,335.3,1083,336z"/>
	<path class="st1" d="M303,1c4,14.3,8.2,28.5,12.1,42.8c2.9,10.6,5,21.3,4.3,32.5c-0.8,12.5-6.6,22.5-14.1,31.9
		c-6.2,7.8-12.8,15.3-19,23.2c-5.9,7.6-10.3,16-11.8,25.6c-1,6.7,1.1,12.2,6.8,15.9c8.8,5.8,19.1,6.7,29.2,7.8
		c26.9,3.1,52.5,10.6,76.8,22.5c10,4.9,20,10.6,31.4,10.8c7,0.1,14.2-1,21-3c8.3-2.5,16.1-6.3,24-9.8c23-10.1,46.5-10.2,70.3-3.4
		c12.6,3.6,25.2,7.8,38.1,10c21.8,3.6,39.1-5,51.5-23.1c9-13.1,14.1-27.9,17.9-43.2c2.6-10.3,4.7-20.8,6.6-31.3
		c1.8-9.4-2.2-15.9-11.5-17.9c-6.1-1.3-12.5-1.9-18.8-2.2c-34.1-1.5-67.2-7.4-97.9-23.1c-18.5-9.5-37-19.1-54.9-29.6
		c-15.6-9.2-29-21.3-39.2-36.5c1,0,2,0,3,0c7.3,7.9,13.7,16.9,22,23.5c11.3,8.9,23.7,16.7,36.3,23.7c21.1,11.7,42.4,23.7,65.9,29.7
		c18,4.6,36.5,7.1,54.9,9.9c8.8,1.4,17.9,1.1,26.8,2.2c11.1,1.4,16.2,6.7,14.9,17.8c-1.6,13.5-4.3,27-8.2,40
		c-3.5,11.9-7.8,23.9-14.2,34.5c-14.9,24.5-36.2,32.7-64.2,26c-12.6-3-24.9-7.3-37.5-10.5c-22.1-5.6-43.6-3.2-64.3,6.5
		c-5.7,2.7-11.7,4.8-17.5,7.3c-17.2,7.3-33.9,5.3-50.1-3.1c-23.6-12.2-48.3-20.7-74.6-24.9c-9.2-1.4-18.4-2.9-27.6-4.4
		c-2.3-0.4-4.5-1.2-6.6-2.2c-10.2-4.5-13.8-11.5-11.7-22.5c2.3-11.6,8.3-21.3,15.8-30.2c4.4-5.2,8.7-10.5,13.3-15.6
		c16.4-18.2,18.7-38.9,11.7-61.6C309.5,31.8,305.4,16.4,301,1C301.7,1,302.3,1,303,1z"/>
	<path class="st1" d="M389,1c7.8,18,18.4,34.4,31.6,48.9c10.8,11.8,22.2,23,36.6,30.7c11.2,6,23.1,8.4,35.6,8.3
		c29-0.4,56.8,6.3,84.2,15.1c37.2,12,35.4,41.7,24.8,64.2c-2.6,5.5-7.1,10.4-11.7,14.6c-7.8,7.1-17.8,6-27.2,4.7
		c-13.8-1.9-27.5-5.4-41.3-7.3c-23.7-3.3-47.5-3.8-71,1.6c-18.9,4.3-37.6,3.2-56.5-0.2c-21.2-3.8-42.5-7-62.4-15.7
		c-4.9-2.2-9.6-5.4-13.8-8.8c-5.4-4.4-6.5-10.7-5.3-17.3c1.9-10.4,8.1-18.5,14.4-26.5c6.9-8.8,13.8-17.5,17.2-28.5
		c3.5-11.4,0.6-21.9-3.5-32.6c-5.8-15.1-11.1-30.3-16.5-45.5C323.5,5,323.4,3,323,1c0.7,0,1.3,0,2,0c4.7,14.4,9.4,28.7,14.1,43.1
		c2.7,8.3,6.4,16.5,7.8,25.1c2.4,14.2-3.7,26.3-12,37.5c-5.9,8-12.3,15.8-17.2,24.5c-7.5,13.5-4.2,23.8,9.8,30.4
		c10.5,4.9,21.6,8.9,32.8,11.6c22.3,5.3,44.9,10.7,68,9.6c12.1-0.5,24-3.2,36.1-5c23.9-3.5,47.4-1.1,70.9,3.2
		c12.1,2.2,24.3,3.4,36.5,5.1c10.8,1.5,18.3-3.9,24.2-11.9c8.9-12.2,11.7-26,9.1-40.8c-2.3-13.1-11.2-20.8-23-24.7
		c-16.4-5.4-33.1-10.3-49.9-14.1c-10.8-2.4-22.1-3.4-33.2-3.2c-27.5,0.5-50.1-9.5-69.3-28.8c-18-18-32.8-38-42.8-61.5
		C387.7,1,388.3,1,389,1z"/>
	<path class="st1" d="M1044,1c-1.1,13.2-1.6,26.6-3.5,39.7c-1.7,11.6-9.7,19-20.3,23.5c-14.9,6.3-30.9,7.8-46.7,10
		c-18.1,2.5-34.9-2.7-52-7.4c-16.2-4.5-32.4-8.8-48.8-12.7c-8.3-2-15,3.2-14.4,11.7c0.8,11.2,2.4,22.5,5.2,33.4
		c4,15.8,12.1,29.9,21.7,43c13.3,18.1,26.8,36.1,40.4,54c18.8,24.7,45.7,30,74.8,19.5c12.8-4.7,24.6-11.5,34.6-20.6
		c9-8.2,15.1-18.9,17.8-30.7c3.2-14.2,5.2-28.8,7-43.2c1.1-8.6,1-17.3,1.2-25.9c0.3-13.1,7.6-22,17.2-29.5c1.6-1.2,3.2-2.4,4.8-3.6
		c0,1,0,2,0,3c-11.2,6.6-19,15.5-20,29.2c-1.2,17.2-2.1,34.5-4.1,51.7c-1.7,14.9-6.2,29-14.9,41.5c-10.2,14.5-25,22.6-40.9,29.2
		c-13.1,5.4-26.8,7.1-40.7,5c-16.7-2.5-29.4-12-39.4-25.2c-14.4-19.2-28.8-38.4-42.7-57.9c-14.4-20.3-22.3-43.1-24.1-67.9
		c-0.3-3.7,0.6-7.6,1.8-11.2c1.7-5.1,5.6-8.3,11.1-7.3c11.4,2.1,22.9,4.4,34.1,7.3c9.5,2.4,18.9,5.5,28.2,8.5
		c20.8,6.7,41.7,6,62.7,1.6c7-1.5,14-3,20.8-5.3c16.9-5.7,25-16.7,26-34.6c0.5-9.5,0.8-19,1.2-28.4C1042.7,1,1043.3,1,1044,1z"/>
	<path class="st1" d="M685,1c-0.3,11.1-1.3,22.2-0.7,33.3c0.6,10.1,7.9,16.2,18.1,16.5c5.6,0.2,11.4,0.1,16.9-0.9
		c7-1.2,13.5-0.6,20.2,1.2c6,1.5,11.9,3.2,18,4.2c19.3,3.5,36.6,12.3,53.5,21.5c11.8,6.4,19.2,17.2,25.7,28.6
		c8,14.2,15.2,29,24.3,42.5c10.3,15.3,22.1,29.6,33.6,44c7.5,9.3,15.7,18.1,23.6,27.1c16.1,18.3,35.8,26.8,60.2,21.5
		c23.2-5.1,45-13.4,63.9-28.2c14.2-11.1,24.5-24.8,28.4-42.8c3.3-15.1,6.5-30.3,9.9-45.4c0.5-2.1,1.5-4,2.3-6c0,2,0,4,0,6
		c-2.6,11.9-5.6,23.6-7.9,35.6c-3.8,20.5-11.9,38.4-28.3,51.9c-16.5,13.5-35.6,22.1-56,27.8c-10.4,2.9-20.9,4.8-32,4.1
		c-14.5-1-26.4-7.2-36.1-17.3c-12.3-12.8-23.7-26.6-35.6-39.8c-19.7-21.6-34.9-46.3-47.6-72.5c-11.4-23.5-29.7-37.8-53.4-47.5
		c-17.3-7.1-35.5-10.2-53.4-14.7c-6.3-1.6-13.5,1-20.3,0.9c-6.7-0.2-13.9-0.3-20-2.7c-7.8-3.1-10.7-10.7-10.6-18.9
		c0.1-10,0.7-20,1-29.9C683.7,1,684.3,1,685,1z"/>
	<path class="st1" d="M1,887c9.8-0.4,19.5-1.2,29.3-1.2c22.1,0,44.3,1.2,66.1-4.2c15.2-3.8,30.6-6.8,45.7-10.9
		c7.3-2,14.3-5.5,21.1-8.9c18.1-8.9,24.1-30.8,18.8-48.5c-3.9-13.1-11.6-24-20.9-33.6c-20-20.8-39.7-41.8-54.3-66.9
		c-1.2-2.1-3-4-4.4-6c-6.5-8.7-15.5-13.1-25.8-15.8c-12.5-3.3-25.2-6.5-37.3-11c-28.5-10.5-38-36-32.3-62.4
		c1.6-7.3,3.6-14.5,5.4-21.8c0.4-1.4,0.5-3,0.6-4.4c0.3-7.6-4.4-11.2-11.8-9.3c0-0.7,0-1.3,0-2c10-1.8,15.1,2.9,13.3,12.9
		c-1.5,8.3-3.8,16.5-5.6,24.8c-4,18.8-1.4,36.2,13.5,49.5c6.4,5.7,14.7,9.7,22.8,13c8.9,3.6,18.3,6.4,27.8,8c17.8,3,29.8,13,38.7,28
		c11.5,19.5,25.8,36.7,41.9,52.6c10.7,10.6,20.7,21.8,27.2,35.5c9.1,18.9,5.3,42.7-8.9,54.4c-9.7,8-21.3,12.4-33.4,15.3
		c-19.9,4.7-39.9,9.4-60.1,12.5c-12,1.9-24.5,0.7-36.8,0.9c-11.6,0.2-23.3,0.4-34.9,0.6c-1.8,0-3.7,0.1-5.5,0.2
		C1,887.7,1,887.3,1,887z"/>
	<path class="st1" d="M173,1c-14.9,11.3-21.2,28.2-28.9,44.3c-6.6,13.6-13.6,27.1-20.6,40.5c-6.1,11.7-16.1,19.2-27.2,25.8
		c-8.2,4.8-16.3,9.9-23.5,15.9c-8.7,7.2-13.8,16.5-12.7,28.5c0.9,9.1,6,13.4,14.5,10.3c5.8-2.1,11.8-5.4,16-9.8
		c8.7-9.1,16.6-19.1,24.2-29.1c8.4-11,19-18.6,31.7-23.4c17.9-6.7,36.1-12.9,53.8-20.2c9.2-3.8,18.1-8.7,26.2-14.4
		c18.4-13.2,20.9-41.9,5.9-60.3c-2.3-2.8-4.9-5.4-7.4-8.1c1,0,2,0,3,0c7.5,7.4,13.2,15.9,15,26.5c4,22.7-4.3,39.7-25.9,50.3
		c-14.5,7.1-29.7,12.6-44.7,18.6c-10.3,4.2-20.8,7.9-31.2,12.1c-10.7,4.3-18.6,11.9-25.6,20.9c-7.4,9.6-14.6,19.5-23.1,28.1
		c-4.8,4.9-11.7,8.2-18.2,10.7c-8.3,3.2-14.1-1.1-15.9-9.9c-2.2-11.1,1.2-21,9.2-28.2c8.2-7.4,17.3-14.2,26.9-19.6
		c14.7-8.3,25.2-19.9,32.5-34.8c7.3-15,14.4-30,21.6-45C154,19.6,159.9,8.8,170,1C171,1,172,1,173,1z"/>
	<path class="st1" d="M1,277c27.1-6.2,47-22.3,63.2-44.2C74,219.5,84,206.3,94.9,194c11-12.3,23.6-22.9,37.6-31.9
		c15.8-10.2,31.1-21.1,46.6-31.8c16.2-11.2,32.4-22.2,48.3-33.8c8.1-6,16.2-12.5,22.9-19.9c12.2-13.6,15.2-30.2,11-47.7
		C259,19.4,255.1,10.3,252,1c0.7,0,1.3,0,2,0c8.1,16,11.9,32.9,9.7,50.7c-2.3,18.3-13.7,31.1-28,41.4c-16.8,12-33.9,23.6-50.9,35.3
		c-17.8,12.3-35.4,24.8-53.4,36.9C112.8,177.9,97,193.4,83.1,211c-9.9,12.6-19.3,25.5-29.7,37.6c-12.9,15.1-29.7,24.4-48.9,29.2
		C3.4,278.1,2.2,278,1,278C1,277.7,1,277.3,1,277z"/>
	<path class="st1" d="M1,525c6.3-3.3,12.5-6.8,18.9-10c3-1.4,6.2-2.4,9.5-3.2c13.8-3.4,24.2,0.9,31.5,13c3.6,5.8,6.8,11.9,10.7,17.4
		c6.7,9.5,12.4,11.8,19.4,8.6c8.8-4,14.3-14.7,12.3-24c-2.7-12.7-11.9-19.5-22.9-24.5c-4.8-2.2-9.7-4.4-14.4-6.9
		c-4.7-2.4-7.7-6.4-8.2-11.8c-1.4-14.9-2.7-29.8-3.9-44.7c-1.5-18.5-1.9-37.2-4.3-55.6C46.2,357.2,27,339.2,1,336c0-0.7,0-1.3,0-2
		c10.6,1.9,20.6,5.1,29.4,11.7c11.7,8.8,18,20.9,20.5,34.9c2,11.3,3.2,22.7,4,34.2c1.1,16.6,1.4,33.2,2.3,49.8
		c0.3,6.3,1.4,12.6,2.3,18.8c0.8,5.1,4.1,8.7,8.6,11.1c7.4,3.9,15.2,7,22.2,11.3c9.8,6,15.5,14.8,14.9,27
		c-0.5,9.2-6.3,17.5-14.9,20.6c-5.7,2-12.3,0.1-16.9-5.6c-3.5-4.4-6.5-9.3-9.6-14c-1.3-1.9-2.3-4.1-3.5-6.1
		c-9.4-15.6-21-18.8-38.9-11.2c-7.1,3-13.6,7.6-20.4,11.5C1,527,1,526,1,525z"/>
	<path class="st1" d="M1,864c22.5-3.6,44.9-7.4,67.4-10.9c13.3-2,26.7-3.5,40-5.2c4.4-0.6,9-1,13.3-2c19.3-4.7,27.5-16.1,23.7-35.5
		c-3.9-20-11.8-38.8-25.8-53.8c-10.9-11.6-23.1-22-34.8-32.9c-10.6-9.8-24-13.9-37.5-17.8C31.9,701.4,16.4,696.6,1,692
		c0-0.7,0-1.3,0-2c17.7,5.3,35.3,10.9,53.1,15.9c15.2,4.2,28.1,11.7,39.2,22.8c7.9,7.8,16.5,15,24.5,22.8
		c11.7,11.4,18.9,25.7,24.4,40.8c2.3,6.2,4.4,12.7,5.3,19.2c2.4,17.8-3.5,31.5-23.3,35.7c-9.1,1.9-18.4,2.3-27.6,3.7
		c-12.3,1.9-24.6,4.2-36.9,6.2c-19.6,3.1-39.1,6-58.7,9C1,865.3,1,864.7,1,864z"/>
	<path class="st1" d="M1,244c5.5-4,11.4-7.5,16.3-12.1c3.3-3.2,6.5-7.7,7.3-12.1c1.7-9.5,2.7-19.4,2.5-29.1
		c-0.4-19.3,0.2-38.3,7.4-56.5c4.9-12.2,13.8-21.5,23.3-30.1C77.2,86.6,97,69.4,110.4,46.5c7.5-12.9,13.5-26.7,20.2-40
		c0.9-1.8,1.6-3.6,2.4-5.5c0.7,0,1.3,0,2,0c-7.6,19.1-16.1,37.6-28,54.5C97,69.7,85.1,82.2,72.2,93.8c-8.9,8-17.5,16.4-25.6,25.1
		c-12.8,13.7-16.3,31-17.3,48.8c-0.6,10.4-0.6,21,0,31.4c1.2,22.2-7.7,37.9-28.2,46.8C1,245.3,1,244.7,1,244z"/>
	<path class="st1" d="M1,837c24.1-7,48.4-13.7,72.3-21.2c6.7-2.1,13.2-5.7,19-9.8c16.2-11.5,18-30.6,4.1-44.8
		c-6-6.1-13.4-10.8-20.2-16.3c-16.1-13.1-34.6-19.6-55.3-19.9c-6.6-0.1-13.3-0.7-19.9-1c0-0.7,0-1.3,0-2c18.3,1.5,37.3-0.2,54.4,8.1
		c16.8,8.1,32.8,18,44.8,32.6c12.8,15.7,8.5,36-8.9,46.7c-13.1,8-27.5,12.6-42.1,16.6c-16,4.4-32.1,8.7-48.1,13
		C1,838.3,1,837.7,1,837z"/>
	<path class="st1" d="M467,1c5,3.8,9.9,7.8,15.1,11.5c18.9,13.5,37.6,27.5,57,40.3c13.1,8.7,27.8,14.7,43.7,15.9
		c21.8,1.7,39-7.9,52.7-24.2C645,33.1,651.4,20,655.3,5.7c0.4-1.6,1.1-3.1,1.7-4.7c0.3,0,0.7,0,1,0c-3.1,16.9-10.5,31.8-21.3,45.1
		c-10.2,12.5-23,20.9-38.9,23.4c-12.7,2-25.2,0.6-37.3-4.2c-13.8-5.4-26.3-12.7-38-21.7c-14.6-11.3-30.2-21.4-45.2-32.1
		c-4.6-3.3-8.8-7-13.2-10.5C465,1,466,1,467,1z"/>
	<path class="st1" d="M1,190c1.9-6.9,4.1-13.7,5.7-20.6C9.1,159,11,148.5,13.2,138c3.3-15.9,11.4-29,22.6-40.4
		c12.1-12.4,24.5-24.5,35.9-37.5c15-17,24.2-37.3,30.3-59.1c0.7,0,1.3,0,2,0c-4.8,15.5-9.7,31-19.2,44.3c-6.9,9.7-14.6,19-22.5,27.9
		C52,84.7,40.9,95.6,30.4,107c-9,9.9-13.7,21.9-16.3,34.9c-2.9,14.2-5.8,28.4-9,42.5c-0.8,3.7-2.7,7.1-4.1,10.6
		C1,193.3,1,191.7,1,190z"/>
	<path class="st1" d="M1083,912c-13.9,3.4-26.7,9-38.3,17.5c-19.7,14.5-31.8,33.8-36.5,57.7c-3,15.7-5.2,31.5-8.2,47.2
		c-1.3,6.5-3.9,12.7-6.1,18.9c-0.6,1.6-1.9,2.9-3.8,3.7c1.8-4.1,4.4-8.1,5.4-12.4c2.8-12.6,5.3-25.4,7.4-38.2
		c2.9-18.1,5.9-36.2,16-52.1c13.8-21.9,33.7-35.5,58.3-42.6c1.9-0.5,3.9-0.5,5.9-0.7C1083,911.3,1083,911.7,1083,912z"/>
	<path class="st1" d="M1083,367c-19.8-1.4-27.7,12.8-28.6,30.3c-1.4,28.2-7.1,55.7-11.8,83.4c-0.5,2.9-1.2,5.9-1.2,8.9
		c-0.1,1.8,0.3,4.4,1.5,5.3c1.2,0.9,3.9,0.6,5.5-0.2c10.4-5.2,20.7-10.6,31-16c1.2-0.6,2.4-1.1,3.6-1.6c0,0.7,0,1.3,0,2
		c-11.1,5.7-22.2,11.5-33.3,17.2c-7,3.6-10.7,1.3-9.7-6.5c1.6-12.4,4.1-24.6,5.8-37c2.6-19.3,4.8-38.6,7.2-57.9
		c1.1-9.1,3-17.8,10.7-24c5.7-4.6,11.9-7.2,19.4-4.8C1083,366.3,1083,366.7,1083,367z"/>
	<path class="st1" d="M721,1c5.3,13.8,15.2,21.8,29.8,25.1c18.7,4.2,36.9,10.1,55.5,14.7c10.5,2.6,21.2,4.4,31.9,5.9
		c9.2,1.3,13.9-1.7,15.7-10.6c2.3-11.5,3.5-23.3,5.1-35c0.3,0,0.7,0,1,0c-1.4,11.9-2.2,23.8-4.3,35.6c-1.7,9.4-5.1,11.4-14.6,11.5
		c-15.4,0.2-29.9-4-44.6-8c-16.5-4.5-33.1-8.9-49.7-13.1c-14.2-3.5-23-12.6-27.9-26C719.7,1,720.3,1,721,1z"/>
	<path class="st1" d="M889,1c1.6,16.2,12.3,25.6,25,33.4c14.7,9.1,31.1,13,48.1,13.1c9,0,18.3-1.6,27-3.9
		c14-3.7,23.1-13.5,27.8-27.1c1.7-5,2.8-10.3,4.1-15.4c0.7,0,1.3,0,2,0c-1.5,5.6-2.6,11.4-4.6,16.8c-5.7,15.6-16.9,25.4-33.1,28.8
		c-25.7,5.4-50.4,2.6-73.2-11.2c-5.8-3.5-10.8-8.3-15.9-12.8C889.8,17,888.9,8.8,887,1C887.7,1,888.3,1,889,1z"/>
	<path class="st1" d="M504,1c15.9,12.8,31.2,26.4,47.8,38.1c13.6,9.6,29.4,14.3,46.3,7.9c13.1-4.9,21.3-15.1,27.6-26.8
		C629,14.1,631.3,7.4,634,1c0.3,0,0.7,0,1,0c-1.9,11.7-7.6,21.6-14.4,30.9c-18,24.6-46.1,24.4-70.3,8.7c-11.4-7.4-21.3-17-31.9-25.6
		c-5.8-4.7-11.6-9.4-17.5-14C502,1,503,1,504,1z"/>
	<path class="st1" d="M1083,943c-23.3,1.8-37.4,15.8-46.6,35.8c-7,15.2-8.8,31.7-10.3,48.1c-0.7,8.3-1.5,16.6-2.3,24.8
		c-0.2,1.7-0.7,3.4-2.2,5c0.1-1.7,0.2-3.4,0.3-5.1c2-17.4,3.3-34.8,6.2-52c2.8-17,9.3-32.8,22.5-44.7c9.1-8.3,19.9-13.3,32.4-13.9
		C1083,941.7,1083,942.3,1083,943z"/>
	<path class="st1" d="M1,941c25.5-0.3,46.4,10.2,63.6,28.3c5.5,5.8,8.4,13.2,8.4,21.4c0.1,20.4,0,40.9,0,61.3c0,1.5-0.4,3-0.6,5.1
		c-0.9-0.9-1.2-1.1-1.2-1.4c0.1-11.6,0.2-23.2,0.3-34.8c0-10.5,0.4-21-0.2-31.4c-0.8-12.8-8.5-21.9-18.5-28.8
		C37.2,950,20.5,942.1,1,942C1,941.7,1,941.3,1,941z"/>
	<path class="st1" d="M1,111c6.8-16.3,18.6-28.8,31.2-40.8c7-6.6,13.8-13.4,20.2-20.6C62.7,37.9,67.1,23.5,69.7,8.4
		C70.2,5.9,70.6,3.5,71,1c0.3,0,0.7,0,1,0c-1.1,20.4-7.3,38.9-21.5,54c-8.7,9.2-17.7,18-26.8,26.8C14.2,91,6.5,101.5,2.4,114.4
		c-0.3,0.9-0.9,1.8-1.4,2.6C1,115,1,113,1,111z"/>
	<path class="st1" d="M1,475c10.1-5.5,16.7-14.1,21.1-24.4c11-25.8,8.9-50.5-7.2-73.6c-3.3-4.8-8-7.9-13.8-9c0-0.7,0-1.3,0-2
		c11,2.1,17.2,10.2,21.5,19.3c11.4,24.6,11.6,49.6-2.6,73.2C15.4,466,7.4,471.5,1,478C1,477,1,476,1,475z"/>
	<path class="st1" d="M1,979c10.9,0.8,19.7,5.4,26.4,14.1c10.5,13.7,20,46,17.7,62.8c-0.4-3.2-0.8-6.5-1.2-9.7
		c-1.9-15.1-5.9-29.7-12.6-43.4C25.1,990.1,14.8,982.7,1,980C1,979.7,1,979.3,1,979z"/>
	<path class="st1" d="M539,1c6.7,5.7,13.1,11.8,20.1,17.1c6.8,5.2,14.4,9.2,23.4,8.2C594.3,25,604,13.8,608,1c0.7,0,1.3,0,2,0
		c-2.2,9.3-7.7,16.6-15.1,22.2c-8.2,6.2-17.6,6.6-26.9,2.3c-12.2-5.7-22.2-14.4-31-24.5C537.7,1,538.3,1,539,1z"/>
	<path class="st1" d="M1083,980c-16.6,3.5-25.8,15-29.9,30.2c-4,14.5-6,29.6-8.9,44.4c-0.1,0.6-0.2,1.3-1.2,2c0-2.4-0.1-4.9,0-7.3
		c0.2-2.5,0.6-5,0.9-7.4c2.4-17.4,5.3-34.7,15.8-49.4c5.7-7.9,13.1-13.1,23.3-13.4C1083,979.3,1083,979.7,1083,980z"/>
	<path class="st1" d="M1083,247c-10.9,5.6-22.1,10.7-32.6,16.9c-3.2,1.9-4.6,6.8-6.8,10.3c3.4,1.3,6.8,3.7,10.2,3.8
		c9.7,0.2,19.5-0.6,29.2-1c0,0.7,0,1.3,0,2c-11.5,1.7-23.1,2.2-34.7,0.2c-7.2-1.2-9.4-5.6-4.8-11.2c3.6-4.4,8.4-8.2,13.3-10.9
		c8.4-4.6,17.4-8.2,26.1-12.2C1083,245.7,1083,246.3,1083,247z"/>
	<path class="st1" d="M1,61c10.9-7.2,22.7-13.1,31.2-23.6C40.8,26.8,44.2,14.4,45,1c0.3,0,0.7,0,1,0c0.7,19.7-7,35.6-22.6,47.4
		C16.3,53.7,8.5,58.1,1,63C1,62.3,1,61.7,1,61z"/>
	<path class="st1" d="M927,1c16.3,17.3,46.8,17.3,61,0c0.7,0,1.3,0,2,0c-3.3,6.9-9.8,9.6-16.2,12.1c-16.3,6.3-36.5,1.8-47.3-10.1
		c-0.6-0.6-1-1.3-1.5-2C925.7,1,926.3,1,927,1z"/>
	<path class="st1" d="M1,17c7.2-1.7,10.2-6.1,11-16c0.7,0,1.3,0,2,0c-0.8,3.5-1.3,7.2-2.6,10.6C9.6,16.1,5.9,18.6,1,19
		C1,18.3,1,17.7,1,17z"/>
	<path class="st1" d="M1,1040c8.1,0.8,12.1,6.1,12,16.8c-2.7-6-2.7-14.3-12-14.8C1,1041.3,1,1040.7,1,1040z"/>
	<path class="st1" d="M1073,1c-0.2,7.5,2.2,13.5,10,16c0,0.7,0,1.3,0,2c-8.5-2.7-11.6-7.4-12-18C1071.7,1,1072.3,1,1073,1z"/>
	<path class="st1" d="M1083,1042c-7.6,2.1-7.5,9.4-10.3,14.9c-1.7-6.7,2.9-14.1,10.3-16.9C1083,1040.7,1083,1041.3,1083,1042z"/>
	<path class="st1" d="M508.8,222.9c14.6-0.3,27.1,3.9,39.8,7.6c33.3,9.5,65.9,7,98-5.3c20-7.7,39.1-17.3,56.4-29.8
		c13.6-9.8,29-15.6,44.1-22.1c11.3-4.8,23.9-4,35.7,0.5c18.3,7,33.6,18.8,49.1,30.4c4.1,3.1,8.3,6.3,12.9,8.4
		c24.9,11.4,41.8,30.9,54.7,54.3c2.4,4.4,4.7,8.9,6.4,13.5c6.7,18.7-1.8,43.3-32,44.6c-8.1,0.4-16.3,1-24.4,1.8
		c-8.3,0.8-15.5,4.3-22.6,8.7c-14.9,9.1-30.1,17.7-45.4,26.1c-13.4,7.4-27.1,14.2-40.6,21.5c-20.7,11.1-33.1,28.9-40.3,50.7
		c-3,9-5.6,18.1-9,27c-4.6,12.2-13.3,20.4-25.9,24.5c-21.7,7.1-44,10.5-66.6,12.6c-15.7,1.5-31.5,2.5-47.3,3.4
		c-2.2,0.1-5.1-0.8-6.7-2.3c-3.4-3.1-6.8-6.5-9.2-10.4c-9.3-15.2-21.1-28.3-34.1-40.4c-23.8-22.3-40.2-49.4-53.4-78.9
		c-9-20.1-18.9-39.7-28-59.7c-2.6-5.8-4.8-12.2-5.2-18.4c-0.3-4.1,2.4-8.8,4.7-12.6c1.9-3,5.1-5.2,8-7.4
		c15.6-12.3,31.1-24.6,46.8-36.6C485.1,226.8,496.6,221.9,508.8,222.9z M906,291.7c0.4-7.4-3.1-14.4-6.8-21.3
		c-13.2-24.5-30.3-44.9-56.4-56.6c-4.5-2-8.4-5.3-12.5-8.1c-11.1-7.6-21.9-15.7-33.3-22.9c-13.6-8.5-28.6-14-44.7-9.1
		c-11.7,3.6-23.1,8.7-33.7,14.8c-19.9,11.5-38.6,24.8-59.9,34c-32,13.8-64.9,19.9-99.4,12.5c-12.2-2.6-24.2-6.3-36.3-9.1
		c-17.3-4-33.1-0.3-47,10.8c-8.7,7-17.2,14.2-25.9,21.2c-8.5,6.7-17.4,12.9-25.8,19.7c-7.3,5.8-9.7,13.3-5.9,22.3
		c1.4,3.4,2.8,6.8,4.3,10.1c8.1,17.3,16.4,34.6,24.5,52c9.1,19.5,17.5,39.5,31.1,56.3c11.3,13.9,24.4,26.4,36.3,39.9
		c7,8,13.2,16.6,19.8,25c3.2,4.1,6.4,8.1,9.5,12.2c3.3,4.3,7.8,5.2,12.9,4.7c18.7-1.7,37.6-2.4,56.1-5.2c18.4-2.8,36.5-7.3,54.5-12
		c10.7-2.8,18-10.8,22-21c4.1-10.7,7.5-21.7,11.3-32.6c7.2-20.8,19.8-37.2,39.6-47.6c13.7-7.2,27.5-14.3,41.1-21.6
		c13.2-7.1,26.8-13.7,39.1-22.1c11-7.5,22-12.6,35.4-13.2c9.8-0.4,19.7-1.3,29.1-3.6C898.1,317.8,906,306.4,906,291.7z"/>
	<path class="st1" d="M657.1,1057.6c0.7-5.3,1.3-9.6,1.8-13.8c2.7-20.6-2.3-40.4-6.8-60.2c-1.5-6.5-2.8-13.1-3.1-19.7
		c-0.8-16.9,7-27.5,23.4-32.1c10.7-3,21.7-5.3,32.5-7.9c16.4-3.9,32.1-9.8,47.2-17.5c12-6.1,24.4-11.7,37-16.2
		c13.2-4.7,27.2-5.3,40.7-0.7c15.3,5.2,24.6,17,31.1,30.8c5.8,12.3,10.8,25.1,15.2,38c6.5,19.2,16,37,25.6,54.7
		c3.2,5.9,6.1,11.8,9.2,17.7c4.7,8.9,9.5,17.8,14.4,26.9c-0.8-0.6-1.8-1-2.4-1.8c-1.8-2.4-3.8-4.7-5.1-7.4
		c-12.5-24.5-25.5-48.7-37.1-73.6c-7.1-15.2-11.7-31.5-18.1-47.1c-5.6-13.6-13.5-25.7-26.7-33.4c-16.3-9.5-33.1-7.3-49.7-1.4
		c-8.9,3.2-17.8,6.9-26,11.5c-24.3,13.7-50.8,20.5-77.7,26.6c-7.5,1.7-15.2,4.5-21.5,8.8c-11.5,7.7-11.2,20.2-9.2,32.1
		c2.1,12.8,5.6,25.4,7.8,38.2c2.5,14.5,2.5,29.2-0.3,43.7c-0.1,0.7-0.2,1.3-0.4,1.9C658.7,1056.3,658.3,1056.4,657.1,1057.6z"/>
	<path class="st1" d="M486.2,702.2c-13.2,0.2-23.9-2.9-33.6-9.4c-21.7-14.4-22.7-39.4-2-55.4c7.2-5.6,14.6-11,22-16.4
		c14.3-10.4,18.4-24.5,15-41.4c-1.1-5.4-1.2-10.9-1.8-16.3c-2.1-19.5,8.5-32.3,23.4-42.1c6.2-4.1,13.8-6.5,21.1-8.6
		c7.1-2,10.4-0.7,13.5,6c3.4,7.3,6.1,15.2,7.4,23.1c2.7,15.2,4.4,30.8,0.8,46.1c-1.8,7.4-4.3,14.7-7.5,21.7
		c-6.5,14.1-9.6,29-11.6,44.3c-1.3,9.6-3.1,19-8.5,27.4C515,695.6,502.1,703,486.2,702.2z M552.3,568.7c-0.5-6.5-0.5-13-1.6-19.4
		c-1.5-8.5-3.2-17-6-25.1c-3.4-9.9-9-12.5-18.7-8.8c-6.9,2.7-13.8,6-19.7,10.4c-12.5,9.5-20.9,21.5-19.1,38.4
		c0.7,6.1,1.6,12.2,2.5,18.3c2,14-0.3,26.6-11.8,36.2c-3.8,3.2-7.7,6.3-11.6,9.5c-7,5.7-14.5,10.8-20.8,17.1
		c-11,10.9-10.8,27.5,0,38.6c3.5,3.7,7.5,7.2,12,9.6c22.4,11.7,51.4,11.4,66.3-15.8c3.6-6.5,5.7-14.3,6.8-21.7
		c2.6-17.2,5.6-34.2,13.3-50C549.7,594.2,552.5,581.8,552.3,568.7z"/>
	<path class="st1" d="M493.3,862.4c-19.3,0.1-37.4-4-53.8-14.3c-8.1-5.1-13.3-12.6-15.5-21.9c-3.7-16.1-10.8-30.4-22.2-42.4
		c-3.7-3.9-8.3-7.1-13-9.9c-7.8-4.6-10-8.7-8-17.2c2.3-9.6,6.8-13.4,15.6-13.8c16.7-0.8,32.8,2.3,48.9,6.2c8.7,2.1,17.5,4,26.2,6.3
		c13.1,3.5,26.5,2.1,39.7,2.8c7.5,0.4,15.2,1.8,22.4,3.9c7.5,2.2,11.7,8.4,14.4,15.6c3.6,9.5,3.3,19.2,1.6,29
		c-1.2,7.1-2.4,14.1-3.5,21.2c-2.4,15-10.7,25.5-25,30.2c-8.9,2.9-18.4,3.8-27.7,5.6C493.4,863.2,493.3,862.8,493.3,862.4z
		 M493,861.8c7.7-1.3,15.5-1.9,23-4c15.8-4.4,25.7-14.7,28.5-31.2c1.4-8,3-16.1,4-24.1c3-25.5-6.6-43.3-36-42.4
		c-9.5,0.3-19.1,0.5-28.4-0.8c-12.3-1.8-24.4-5-36.6-7.7c-15.9-3.6-31.8-7.4-48.2-7.3c-12.7,0-16.3,8.7-17.1,16.3
		c-0.5,5,1.5,8.4,6.1,10.9c4.1,2.1,8,4.8,11.4,7.9c13,11.9,21.6,26.6,25.4,43.8c2.8,12.6,10.1,21.6,21.6,27.1
		C461.2,857.1,476.6,860.8,493,861.8z"/>
	<path class="st1" d="M466,475.1c1.2,15.8-15.8,35.4-36.4,36.9c-34.9,2.5-62.6-10.3-80.5-41c-8.7-14.9-16.3-30.6-24.1-46
		c-7.5-14.7-1.4-26.6,8.7-37c7.7-8,17.1-13.8,28-16.7c10.5-2.9,20.1-0.9,29.1,4.9c18,11.5,32.7,26.7,46.3,43
		c10.4,12.3,19,25.7,24.9,40.7C464,464.7,464.8,470,466,475.1z M421.1,511.3c4-0.5,8-0.6,11.9-1.5c19.8-4.3,39.5-25.5,27-49.9
		c-5.4-10.6-11.1-21.3-18-31c-12.9-18.3-28.4-34.3-46.7-47.5c-6.7-4.9-13.8-9.4-22.7-9.3c-18.8,0.2-32.1,10.1-43.1,24.3
		c-7,9-7.7,18.4-2.5,28.4c7.7,14.7,15.2,29.6,23.2,44.2C365.5,496.7,390.3,509,421.1,511.3z"/>
	<path class="st1" d="M634.7,1056.8c0-0.9-0.2-1.8,0-2.6c4.3-17.7,2.2-34.9-3.5-52.1c-4.5-13.7-8.5-27.7-11.8-41.8
		c-2.1-9-2.4-18.5-3.6-27.7c-0.3-2.3-0.9-4.6-1.6-6.8c-3.8-13-11-19.3-24.5-19.4c-32.6-0.2-64.8,2.6-96.3,12
		c-16.9,5.1-27.7,16.4-33.1,32.6c-4.9,14.8-6.6,30.2-4.5,45.8c2.5,18.3,12.7,32.3,26.1,44.1c6.2,5.5,12.7,10.6,19.6,16.2
		c-1.2,0.2-1.8,0.5-2,0.3c-14.9-11-29.3-22.5-38.6-39.2c-8.3-15-8-31.1-6.7-47.2c1-12.3,3.9-24.3,11.1-34.9
		c5.9-8.7,13.6-15,23.6-18.4c17.6-6,35.8-9.1,54.3-10.9c11.9-1.1,23.9-2.3,35.8-2.7c6.4-0.2,13,0.6,19.3,1.8
		c8.6,1.7,14.4,7.4,16.5,15.7c2.3,9,4.1,18.2,4.8,27.5c1.2,15,5.2,29.2,10,43.2c4.8,13.9,9.2,27.9,9,42.8
		c-0.1,7.3-1.6,14.6-2.4,21.9C635.8,1056.9,635.2,1056.8,634.7,1056.8z"/>
	<path class="st1" d="M683.5,1056.6c-0.2-0.9-0.4-1.9-0.4-2.8c0-14.5-0.2-28.9,0-43.4c0.1-7.1,0.7-14.3,1.5-21.4
		c2.3-20.8,15.4-32.8,33.7-40.3c4.2-1.7,8.7-2.6,12.6-4.7c5.8-3.1,11.9-6.2,16.8-10.4c22.9-19.8,55.8-25,81.9-10.4
		c8.4,4.7,14.8,11.6,18.6,20.3c5.9,13.4,10.8,27.2,16.2,40.8c2.9,7.3,5.6,14.6,8.9,21.7c7.2,15.6,11.3,32,14.8,48.7
		c0.2,0.7,0,1.5-0.7,2.4c-0.5-1.2-1.1-2.3-1.4-3.5c-3.9-20.4-11.2-39.6-19.5-58.6c-5.7-12.9-9.4-26.7-14.6-39.9
		c-5.8-14.6-14-27.5-29.6-33.4c-25.6-9.7-49.3-5.4-70.4,11.4c-8.3,6.7-16.9,12.1-27.1,15.3c-15.4,4.8-28.5,13.1-34.7,28.5
		c-3,7.4-4.2,15.8-4.5,23.8c-0.7,16.6-0.2,33.3-0.2,50c0,1.9-0.2,3.9-0.3,5.8C684.4,1056.6,683.9,1056.6,683.5,1056.6z"/>
	<path class="st1" d="M536.2,1057.8c-2.7-2.3-5.4-4.6-8.2-6.7c-12.3-9.4-24.9-18.5-37-28.1c-12.5-10-19.3-23.1-19.2-39.4
		c0-10.7-0.2-21.3,4.2-31.4c4.7-11,12.4-19,23.3-23.6c21.6-9.3,44-10.9,67-5.8c16.1,3.6,26.2,13.2,29.5,29.5
		c1.5,7.2,2.2,14.5,3.7,21.6c2.9,13.2,5.8,26.3,9.5,39.3c3.6,12.7,5.6,25.4,2.8,38.4c-0.4,1.7-0.9,3.4-1.4,5.1
		c-0.4-0.1-0.8-0.1-1.2-0.2c0.6-3.7,1.7-7.5,1.5-11.2c-0.3-8.2,0.2-16.8-2-24.6c-5.7-20.2-10.3-40.6-13.5-61.4
		c-3.7-23.7-13.3-32.7-37.2-36.2c-16.8-2.5-33.6-1.4-49.9,3.9c-22.2,7.2-33.8,23.9-35.2,47.5c-1.6,26,11.2,43.1,31.4,56.8
		c9.4,6.4,18.3,13.4,27.3,20.2c2,1.5,3.8,3.4,5.7,5.1C537,1057,536.6,1057.4,536.2,1057.8z"/>
	<path class="st1" d="M102.6,1057.3c4-14.2,8.6-27.4,18.5-38c10-10.6,22.3-17.8,34.8-24.8c12.9-7.3,26.5-13.6,36.7-24.8
		c6.3-6.9,11.6-14.6,17.5-21.8c5.3-6.5,11.7-11.3,20-13.4c10.9-2.7,18.4,3.4,17.9,14.7c-0.1,3-0.7,6-1.5,8.8
		c-4.1,14-2.6,27.9,2,41.3c5.7,16.5,12.4,32.7,18.7,49c1.1,2.9,2.1,5.8,2.1,9.1c-0.6-0.9-1.2-1.8-1.6-2.8
		c-6.3-15.9-12.8-31.8-18.9-47.9c-6.3-16.7-7.8-33.9-3.8-51.5c1-4.4,0.6-9.7-0.8-14.1c-1.6-5.1-5.4-6.3-10.8-5.4
		c-9.4,1.6-16.3,7.1-22.3,14.1c-2.8,3.3-5.6,6.6-7.9,10.3c-8.8,13.8-21.8,22.6-35.8,30.4c-9,5-17.9,10.2-26.7,15.6
		c-17.1,10.4-28.6,25.2-34.2,44.5c-0.6,2.1-1.5,4.1-2.3,6.1C104,1056.8,103.6,1056.8,102.6,1057.3z"/>
	<path class="st1" d="M717.7,1057.1c-0.9-5.1-2.9-10.3-2.6-15.3c0.9-12.2,2-24.6,4.8-36.5c4-16.8,15.3-28.1,30.8-35.2
		c12.6-5.8,25.8-8.9,39.6-9.2c7.6-0.2,15.3-0.7,22.9-0.3c9.7,0.6,16.3,6.4,20.4,14.8c2.3,4.6,3.9,9.6,6.1,14.2
		c2.5,5.2,4.9,10.6,8.4,15.2c7.7,10.3,9,22.4,10.8,34.4c0.9,5.5,1,11.1,0.2,16.7c-1.1-8.3-2-16.7-3.4-25c-1.5-9.3-4.5-17.8-9.9-25.8
		c-4.9-7.4-8.3-15.9-11.8-24.1c-5.9-13.8-13-19-27.8-18.9c-17.2,0-34.1,1.3-50.4,7.8c-23.4,9.3-34.5,27-37.8,50.9
		c-1.6,12.1-2.2,24.1,1.7,36C719.1,1056.8,718.4,1056.9,717.7,1057.1z"/>
	<path class="st1" d="M300.3,1057.1c-1.7-8.4-4.1-16.7-5.1-25.2c-2.1-18.4,1-35.8,14-49.9c4.9-5.3,10.9-9.9,17.1-13.6
		c11.3-6.6,22.7-13.4,34.9-18c16.7-6.3,27.1,0.5,35.6,15.1c7.2,12.3,10.5,25.8,13.4,39.6c3.3,15.4,5.7,31.2,13.5,45.3
		c1.2,2.1,2.3,4.3,2.5,7.2c-1-1.3-2.1-2.5-2.9-3.8c-7.4-12.9-10.5-27.2-13.4-41.6c-3-15-6.2-30.1-13.8-43.6
		c-2.1-3.8-4.4-7.6-7.3-10.7c-6-6.4-13.5-9.2-22.2-7c-21.6,5.3-40,17.2-55.5,32.3c-14.7,14.4-17.4,33.5-13.4,53.5
		c1.3,6.8,3,13.5,4.5,20.3C301.5,1056.9,300.9,1057,300.3,1057.1z"/>
	<path class="st1" d="M576.3,977.2c-2.2,10.7-3.8,21.6-6.9,32.1c-2.1,7-7,13.1-15.1,13.4c-22.9,0.9-42.7-6.2-57.1-24.9
		c-15.1-19.5-9.2-54.4,23.2-61.1c14.3-3,28-2.2,40.3,5.9c12.2,8.1,14.6,20.8,14.4,34.3C575.5,977,575.9,977.1,576.3,977.2z
		 M532.1,936.7c-3.7,0.7-9.5,1.3-15,2.9c-25.8,7.6-32.5,37.3-19.8,54.7c14.4,19.8,34.2,27.7,58.1,26.4c1.2-0.1,2.7-0.6,3.6-1.5
		c4.6-4.1,9.1-8.3,10.2-14.9c0.8-5.2,2.5-10.4,3.3-15.6c1.9-11.8,2-23.6-3.9-34.5C561.1,940.7,548.2,937.6,532.1,936.7z"/>
	<path class="st1" d="M252.4,1057.3c-4.1-6-8-12.1-12.3-17.9c-5.5-7.4-12.4-13.3-21-16.3c-17-6-33.8-3.8-50,3.5
		c-13.3,5.9-23.6,15.4-31.5,27.6c-0.8,1.3-1.8,2.5-2.7,3.7c-0.5-0.3-0.9-0.7-1.4-1c3-4.3,5.5-8.9,9-12.7
		c18.5-20.3,41.4-29,68.7-25.2c14.5,2,24.6,11.2,32.9,22.5c3.5,4.7,6.4,10,9.5,15.1C253.3,1056.7,252.8,1057,252.4,1057.3z"/>
	<path class="st1" d="M387.1,1057.2c-0.8-1.9-1.6-3.8-2.3-5.7c-4.4-11.7-8.4-23.5-13.3-35c-2.9-6.8-8-12.4-15.3-15.1
		c-11.5-4.1-24.6,2.2-30.2,14c-5.6,11.8-4.6,24-2.6,36.3c0.2,1.3,0.5,2.6,0.6,3.9c0,0.3-0.1,0.6-0.3,1.4c-0.6-0.5-1.2-0.8-1.3-1.2
		c-3.2-13.5-4.3-27,1.3-40.2c3.8-9,10.3-15.2,20.2-16.7c11.3-1.7,21,1.9,26.4,12.1c5.3,10.1,9.2,21,13.4,31.6
		c1.8,4.6,2.9,9.4,4.4,14.1C387.9,1056.9,387.5,1057.1,387.1,1057.2z"/>
	<path class="st1" d="M67.9,608.3c6.9,0.6,11.5,3.8,14.3,11.2c2.9,7.6,3.7,15.4,1.4,23.4c-3.2,10.6-12.5,15.7-23.9,12.8
		c-10.7-2.8-17.3-12.8-14.9-22.9c2.2-9.1,6.7-16.7,14.9-21.5C62.2,609.9,65.2,609.3,67.9,608.3z M83.9,633.4
		c-1.5-5.2-2.5-10.7-4.8-15.5c-3.6-7.6-11.3-9.4-18.5-4.9c-6.8,4.3-11.1,10.4-13.5,18c-2.5,8.1-0.3,14.8,6.5,19.8
		c7.1,5.1,15.4,5.6,21.9,0.7C81.4,647,82.9,640.6,83.9,633.4z"/>
	<path class="st1" d="M260.9,682c-0.5,7.2-10.7,13.7-17.5,11.2c-4.4-1.7-6.1-4.8-5.3-9.3c1.2-6.8,8.9-12.1,15.6-10.7
		C258.1,674.1,261.2,677.9,260.9,682z M258.8,681.7c0.1-3.9-2.7-6.5-7.1-6.6c-5.8-0.1-12,5.1-12.3,10.3c-0.2,3.3,3.4,6.3,7.5,6.4
		C252.2,691.9,258.7,686.4,258.8,681.7z"/>
	<path class="st1" d="M172.5,1057.7c13.2-12.2,41.5-12.2,53.2,0C207.9,1046.9,190.2,1047.8,172.5,1057.7z"/>
	<path class="st1" d="M813.9,719.2c-0.5-8.3,0.5-17.1,5-25.3c6.2-11.2,16.2-14.1,26.7-6.9c11.6,8,16.2,19.9,17.4,33.3
		c0.5,5.4,0.3,11,0,16.5c-0.4,10-7.2,16.8-17.1,17.2c-2.5,0.1-5,0.1-7.5,0c-16.4-0.6-23.8-8.1-24.5-24.6
		C813.8,726.4,813.9,723.2,813.9,719.2z M861.9,724.9c-0.1-10.5-3.4-23.8-14.7-34.2c-9.4-8.6-19.8-7.2-26.2,3.7
		c-1.3,2.3-2.4,4.7-3.2,7.3c-3.3,10.5-3.1,21.2-1.5,32.1c1.5,10.6,5.1,14.8,15.5,17.6C851.6,756.6,861.9,749.1,861.9,724.9z"/>
	<path class="st1" d="M210.7,527.1c-19.4,0.2-31.3-7.4-40.8-20c-16.2-21.6-25.9-46.1-33.5-71.6c-1.9-6.4-2.8-13.5-2.2-20.1
		c1-11.4,3-22.8,5.7-33.9c4.7-19.6,4.6-38.8-0.3-58.3c-2.4-9.6-3.4-19.6-4.7-29.5c-0.9-7.2,1.9-13.6,6.1-19.1
		c11.5-15.1,25.2-27.9,41.2-38.1c9.3-5.9,19.4-5.1,29.5-2.8c9.1,2,18.2,4.3,27.3,6.1c13.7,2.8,27.1-0.5,40.6-2.4
		c10.2-1.5,20.5-3.1,30.7-3.3c22.7-0.5,39.4,13.9,42.1,36.4c0.6,5.3-0.8,11.5-3.3,16.4c-4.3,8.4-9.3,16.6-15.4,23.7
		c-17.4,20.3-39.9,34.7-61.6,49.8c-13,9.1-25.1,19.3-33.7,33c-14.5,23.4-17.2,47.8-6.7,73.5c3.9,9.6,6.5,19.5,6.3,30.1
		C237.9,516,226.9,527.1,210.7,527.1z M134.9,418.1c1.5,7.1,2.3,13.7,4.2,20c8,25.6,18,50.2,35.1,71.3c9.6,11.8,22.1,17.4,37.3,15.9
		c21.1-2,27.3-20.2,24.6-34.9c-2-10.7-5.7-21.2-9-31.6c-3.5-10.9-4.3-21.8-2.8-33.1c3.3-24.2,15.9-43,34.6-57.7
		c15.6-12.2,32.2-23.2,47.9-35.2c12.3-9.4,23.9-19.8,32.9-32.5c6.3-9,12.1-18.7,10.8-30.4c-1.9-17.1-15.7-30.7-32.8-33.8
		c-11.9-2.1-23.3,0.2-34.6,2.5c-21.7,4.4-43.2,5.3-64.7-1.6c-3.9-1.3-8.1-2-12.2-2.6c-8.6-1.2-16.9-0.5-24.5,4.5
		c-13.1,8.8-24.4,19.5-34.9,31.2c-6.3,7.1-11.2,14.9-10.5,24.5c0.6,8.6,2.1,17.2,4.2,25.6c5.4,20.8,5.9,41.3,0.8,62.2
		C138.7,394.3,137.1,406.4,134.9,418.1z"/>
	<path class="st1" d="M988.4,577c-11.1-0.1-20-10.5-19.2-19.6c1.1-12.6,8-21.4,18.1-27.7c9.6-5.9,19.8-10.8,29.8-16.1
		c0.7-0.4,1.5-0.6,2.3-0.9c6.9-2.1,10.4,0.4,8.4,7.2c-6,20.1-13.6,39.4-31,52.8C993.8,574.9,990.1,576.1,988.4,577z M971,558.2
		c0.4,6.9,3.6,12.3,10,15.4c6.9,3.4,12.3-0.1,17.2-4.4c14.4-12.7,21.2-29.9,27.5-47.4c0.4-1.1,0.3-2.3,0.5-3.5
		c0.5-3.4-1.2-4.6-4.4-4.1c-1.5,0.2-3,0.6-4.3,1.3c-10.2,5.5-20.7,10.7-30.6,16.8C977.6,538.1,971.6,546.6,971,558.2z"/>
	<path class="st1" d="M872.6,489.1c-11.4,0.1-26.2-10.6-29.9-21.7c-1.3-3.9,0.9-9.9,4.8-12.8c14.7-11.2,37.9-1.6,40.3,16.6
		C889,480.6,881.9,489,872.6,489.1z M861.8,451.2c-4,1.4-8.3,2.2-12,4.2c-5.7,3.1-6.9,9.1-3.7,14.6c4.6,7.8,11.2,13.2,19.7,16
		c5.8,1.9,11.8,1.9,16.3-3c4.5-4.9,4.7-10.9,2.6-16.9C881.6,457.3,873,452.1,861.8,451.2z"/>
	<path class="st1" d="M529.2,156.5c-9.1-2.4-18.4-4.2-27.3-7.2c-8-2.7-9.5-10.6-3.4-16.6c2.6-2.5,5.8-4.7,9.1-5.9
		c12.9-4.5,25.9-4.2,38.4,1.5c5.5,2.5,9.8,6.6,9.8,13.3c0,5.2-5,10.1-12,11.8c-3.7,0.9-7.5,1.2-11.3,1.6c-1,0.1-2,0-3,0
		C529.5,155.6,529.3,156,529.2,156.5z M530.8,155.1c6.6-2.3,13.3-3.9,19.1-7.1c5.3-2.9,5.4-8.7,1.3-13.2c-1.5-1.7-3.4-3.3-5.4-4.3
		c-12.6-6.3-25.6-6.6-38.5-1.4c-3.1,1.2-6.1,3.6-8.2,6.2c-4,4.9-2.9,9.9,3.1,11.9C511.4,150.3,520.9,152.4,530.8,155.1z"/>
	<path class="st1" d="M377.9,147.2c-1.3-0.2-3.7-0.4-5.9-0.9c-11.2-2.7-14.6-11.8-8-21.3c6.9-9.8,22.5-13.8,32.5-8.3
		c9.7,5.3,10.5,17.8,1.5,24.3C392.3,145.2,385.9,147,377.9,147.2z M379,145c9.1,0,16.1-2.8,20.6-8.2c4.9-5.9,4-12.9-2.3-17.2
		c-8.1-5.5-16.9-4.9-26.8,1.9c-5.7,3.9-9.1,10.5-7.9,15c1.4,5.1,7,8.3,15,8.4C378,145,378.5,145,379,145z"/>
	<path class="st1" d="M1002.3,97.5c21.4,0.4,33,11.6,34.6,34.5c1.3,17.8-2.8,34.2-14.9,47.8c-15.8,17.7-47.7,24.8-67.7,7.7
		c-8.3-7-12.5-16.7-16.2-26.6c-4.3-11.5-8.3-23.2-12.5-34.7c-1.6-4.6-0.1-8.2,3.8-10.8c1.2-0.8,2.6-1.6,4-2
		c18.8-4.9,37.7-9.9,56.5-14.6C994,97.9,998.2,97.9,1002.3,97.5z M1002.2,98.9c-2.3,0.3-4.7,0.3-6.9,0.8
		c-13.1,3.3-26.1,6.8-39.1,10.1c-7.4,1.9-14.9,3.4-22.3,5.5c-5.8,1.7-8,5.3-6.3,10c5.5,15.3,10.9,30.8,17.2,45.8
		c6.4,15,21.1,27.3,44.4,23.6c15.1-2.4,27.8-9.2,36.1-22.5c9-14.4,12.1-30.1,8.7-46.9C1030.7,108.3,1019.6,99.2,1002.2,98.9z"/>
	<path class="st1" d="M460.2,303.5c-0.1-17.1,6.7-31.5,17.1-44.4c8.2-10.1,18.1-18.4,31.4-19.5c9.5-0.8,19.5-0.3,28.7,2
		c24.1,6.1,48.4,6.7,72.9,6.2c9.3-0.2,18.7-1.3,27.9-0.8c17.3,0.9,34.6,2,51.6,4.4c16,2.2,30.5,0.9,44.6-7.7
		c5.3-3.2,12.2-4.2,18.5-5.1c24-3.5,48.1-4.7,71.8,2.4c8.2,2.5,16.4,5.7,24.1,9.6c8.6,4.3,14.8,11.3,14.8,21.5
		c0,10.7-5.4,18.8-15,23.6c-5.2,2.6-10.6,5.1-16.2,6.2c-18.5,3.5-37,6.6-55.6,9.3c-13,1.9-24,7.9-34,15.8
		c-19.3,15.3-33.4,34.9-44.3,56.6c-8.2,16.2-15.1,33-22.9,49.4c-5.8,12-13.5,22.9-25.4,29.5c-7.7,4.3-16.4,7.3-25.1,9.4
		c-12,2.8-24.4,3-36.7,1.3c-11.5-1.5-22.3-5.1-31.7-11.4c-15.4-10.4-30.9-21-45.1-33c-20.7-17.4-32.3-40.8-39-66.7
		c-3.5-13.5-6.9-27.1-9.9-40.8C461.3,315.5,460.9,309.4,460.2,303.5z M599.2,472.1c19.6-0.1,35.1-2.2,49.2-10.7
		c15.4-9.2,23.4-24.2,30.5-39.8c6.1-13.3,11.6-26.9,18.4-39.9c10.8-20.9,24-40,42.5-54.9c11.6-9.4,24.2-16.2,39.5-17.8
		c13.7-1.5,27.4-3.8,41-6.2c10.3-1.9,20.6-3.9,29.6-9.9c16-10.7,16.4-29.1,0.1-39.2c-7.3-4.5-15.5-7.8-23.7-10.3
		c-22-6.8-44.5-6.8-67.2-3.8c-9,1.2-17.9,1.8-25.7,7c-12,8-25.2,8.6-38.9,7.2c-18.4-1.9-36.7-4.6-55.1-5.2
		c-20.9-0.7-41.9,0.4-62.9,0.7c-3.2,0-6.4-0.1-9.5-0.6c-12.5-2.2-24.9-4.3-37.3-6.9c-15.6-3.2-29.9-0.8-42.1,10
		c-4.8,4.3-9.1,9.3-12.9,14.5c-10,13.9-15.2,29.5-11.6,46.6c4,19.2,8.7,38.3,14,57.2c6.2,22.1,17.5,41.6,35.2,56.5
		c13.6,11.4,28,22,42.7,32C569.2,468.1,585.3,472.8,599.2,472.1z"/>
	<path class="st1" d="M484.1,841.5c-4.5-0.4-8-0.4-11.4-1.2c-5.6-1.4-7.6-5.8-5.6-11.2c2.8-7.7,17.9-18,26.1-17.9
		c6.9,0.1,13.7,5.9,14.8,12.7c1.2,7.7-2.5,13.5-10.5,15.6C492.8,840.7,487.9,841,484.1,841.5z M484,840.4c4.4-1,9.7-1.7,14.7-3.4
		c6-2.2,8.9-7.4,7.6-12.4c-1.8-7.1-8.1-12.5-14.4-11.2c-9,1.9-16.8,6.5-22,14.3c-3.4,5.1-1.6,9.3,4.4,11
		C477.1,839.5,480.1,839.7,484,840.4z"/>
	<path class="st1" d="M439.1,466.5c0,16.3-12.9,26.5-30.5,24.4c-24.2-2.9-40.3-15.6-47.2-39.1c-2-6.8-4.1-13.9-4.3-20.9
		c-0.6-16.7,10.8-25.8,27.4-22.5c10.5,2.1,19.7,7.2,27.9,13.9c8.5,7,16.7,14.6,21.5,24.7c2.9,6,4.5,12.7,6.6,19
		C440,466.2,439.6,466.3,439.1,466.5z M411.2,488.9c1.2,0,2.3,0,3.5,0c16.4-0.6,26.6-13.6,21.9-29.3c-2.1-6.9-5.5-13.7-9.8-19.4
		c-11.6-15.1-25.6-27.1-45.3-30.3c-10.7-1.8-19.3,4-22.4,14.4c-2.7,8.9,1,16.8,3.3,24.8C369.3,473.7,388,488.9,411.2,488.9z"/>
	<path class="st1" d="M528.5,978.1c-4.6,0-7.1-2.3-7-6.4c0.1-4.2,3.2-7.4,7.1-7.4c3.9,0,8.3,3.8,8.3,7.1
		C537,975,533,978.1,528.5,978.1z M529.1,964.2c-2.5,3-5.2,4.9-5.4,6.9c-0.1,1.7,3.2,5.4,4.1,5.1c2.7-0.7,4.9-3.1,7.3-4.7
		C533.5,969.6,531.9,967.6,529.1,964.2z"/>
	<path class="st1" d="M170,344.2c-1.4-15.1-0.3-30,5.5-44.1c9.1-22.2,25.6-34.4,49.6-37.1c20.3-2.3,40.5-5.8,60.8-8.4
		c5.9-0.7,12-0.6,17.9,0.2c19.3,2.5,25.7,17.4,19.4,34.5c-3.8,10.3-10.6,18.7-19.1,25.2c-21,16.1-42.5,31.5-63.7,47.3
		c-13.7,10.3-24.7,23.2-34.5,37.2c-3.2,4.5-7.2,8.8-11.7,12.1c-8.1,5.9-15.9,3.6-18.9-6.1c-2.7-8.5-4.5-17.5-5.1-26.4
		C169.4,367.2,170,355.6,170,344.2z M323.9,279.2c0.2-11-5.1-19.4-14.7-21.2c-8.4-1.6-17.3-2.2-25.7-1.2
		c-20.2,2.2-40.2,5.6-60.3,8.5c-13.8,2-25.9,6.9-35.2,17.9c-15,17.6-17.3,38.8-17.5,60.5c-0.1,11.8,0.5,23.6,1.8,35.4
		c1,9.2,2.6,18.5,5.9,27.1c3,7.8,8.2,8.7,14.7,3.4c5.2-4.2,9.9-9.4,13.8-14.9c9-12.5,18.9-24.1,31.3-33.3
		c14.4-10.7,29.2-21,43.8-31.5c11.8-8.5,23.2-17.3,32.5-28.7C319.7,294.4,323.2,286.7,323.9,279.2z"/>
	<path class="st1" d="M493.7,304.5c-0.4-12.3,1.2-24,8.4-34.3c3.6-5.1,8.2-9.2,14.4-10c10-1.2,20.2-2.1,30.3-1.8
		c15.8,0.6,31.5,2,47.2,3.6c16.7,1.7,33.6,2.7,49.9,6.3c19,4.1,34,15.4,43.1,32.9c7.2,13.9,6.6,29.2,1.8,43.4
		c-8.4,25.1-17.5,50-28.1,74.2c-8.1,18.4-23.3,29.9-43.9,32.1c-14.3,1.5-28.3-0.7-41.7-6c-18.9-7.5-36-18-50.5-32.5
		c-11-11-17.5-24.3-21.6-38.9C496.8,351,495,327.7,493.7,304.5z M540,259.4c0,0.2,0,0.5-0.1,0.7c-4.2,0-8.3-0.1-12.5,0
		c-12.6,0.3-22.6,5.3-27,17.6c-2.7,7.4-5.2,15.5-4.9,23.2c0.6,17.1,2.4,34.2,4.9,51.1c3.7,25.4,12,48.8,32.9,65.8
		c18.2,14.8,38.2,26.1,61.5,30.6c29,5.5,52.2-5.7,65.3-32.1c4.6-9.2,8.3-18.9,11.8-28.6c6.6-17.9,14.9-35.4,17.4-54.6
		c1.8-14,0.4-27.4-8.9-38.8c-12.5-15.2-28.7-24.4-48.1-27c-13.2-1.8-26.5-2.3-39.7-3.4C575.1,262.4,557.5,260.9,540,259.4z"/>
	<path class="st1" d="M264,288.9c1.2,0.1,2.9,0.1,4.5,0.6c5.8,1.7,8,6.3,4.3,11c-3.7,4.8-8.2,9.3-13.1,12.9
		c-10.4,7.7-22.1,12.9-34.8,15.8c-5.6,1.3-8.9-1.3-9-7.3c-0.3-10.5,5.6-17.5,13.5-23.1C239.6,291.4,251.5,289.8,264,288.9z
		 M224.3,327.6c4.5-1.6,10.6-3.4,16.4-5.8c11-4.6,21-10.8,28.8-20.1c1.6-1.9,2.4-5,2.3-7.5c0-1.1-3.2-2.8-5.1-2.9
		c-12.3-0.9-23.8,1.6-34.5,7.8c-8,4.7-13.1,11.6-14.8,20.9C216.6,324.6,218.8,327.7,224.3,327.6z"/>
	<path class="st1" d="M564.1,275.4c21.3,1.6,39.8,1.1,57.7,6.9c20.8,6.8,33.1,21.5,37.9,42.1c6.6,28.4,0.8,55.3-13.8,80.2
		c-10.6,18.1-27,25.5-47.4,22.2c-27-4.3-49.6-16.2-63.7-40.7c-6.4-11-8.9-23.3-10.6-35.7c-1.5-11.2-2.4-22.5-3-33.8
		c-0.3-5.3,0.7-10.6,1.4-15.9c1.7-12.2,9.3-19.4,20.7-22.3C550.9,276.6,559,276.1,564.1,275.4z M661,344.3c-0.3-3.1-0.6-7-1.2-10.7
		c-3.8-25.2-18.2-45.3-44.5-51.1c-20.7-4.6-41.8-6.3-62.9-4c-16.2,1.7-26.8,9-28.6,26.6c-1.5,14.9-0.2,29.6,2,44.2
		c1.9,13.1,4.4,26,11.5,37.5c13.5,21.9,34.1,33.3,58.6,38c22.8,4.4,38.5-3.5,50.1-23.7C655.9,383.6,659.7,364.6,661,344.3z"/>
	<path class="st1" d="M547.2,334.3c0.8-5.7,1.2-11.6,2.6-17.2c3-11.8,11-18.4,22.9-20c33.7-4.4,56.4,13.5,63.1,46
		c2.3,11.2,2.3,22.5-1.6,33.5c-6.9,19.7-24.3,29-44.4,23.8c-18.2-4.7-30.1-16.4-36.6-33.8C549.5,356.3,547.5,345.6,547.2,334.3z
		 M582.9,298.1c-20.5,0-30.2,8.2-33.1,28.2c-1.8,12.6,0.3,24.9,4.2,36.9c5.3,16.5,15.7,28.3,32.3,34.4c20.4,7.5,39.4-1.6,46.3-22.1
		c3.8-11.2,3.7-22.5,1.1-34C627.8,315,608.1,298.2,582.9,298.1z"/>
</g>
</svg>
